/* XPM */
static char *f6eb791fd1f842b2b0a413b5e81d7982EGnk1pkyMoZ2hU83[] = {
/* columns rows colors chars-per-pixel */
"64 64 175 2 ",
"   c #000000",
".  c #080707",
"X  c #090906",
"o  c #060909",
"O  c #0B0B0B",
"+  c #12120E",
"@  c #0C1111",
"#  c #131312",
"$  c #181714",
"%  c #191916",
"&  c #151B1B",
"*  c #1B1D1A",
"=  c #211F1C",
"-  c #1E211D",
";  c #21231E",
":  c #1B1E20",
">  c #1E2424",
",  c #222523",
"<  c #232926",
"1  c #2B2C25",
"2  c #2D2D2C",
"3  c #302E25",
"4  c #2F312A",
"5  c #323026",
"6  c #33342C",
"7  c #292F30",
"8  c #2D3333",
"9  c #343534",
"0  c #343934",
"q  c #3A3A33",
"w  c #373939",
"e  c #3A3B3A",
"r  c #3D403C",
"t  c #45453D",
"y  c #3A3F42",
"u  c #3E4142",
"i  c #434444",
"p  c #464A45",
"a  c #4C4C45",
"s  c #4B4C4B",
"d  c #4E504F",
"f  c #53534C",
"g  c #4A4E50",
"h  c #4F5252",
"j  c #525453",
"k  c #575953",
"l  c #5B5C54",
"z  c #565B5A",
"x  c #5B5E5D",
"c  c #5F6058",
"v  c #606055",
"b  c #63635C",
"n  c #68685E",
"m  c #5D6162",
"M  c #646463",
"N  c #676861",
"B  c #6B6C64",
"V  c #626668",
"C  c #656B6B",
"Z  c #6B6C6C",
"A  c #6E716C",
"S  c #74756D",
"D  c #6D6F71",
"F  c #6D7271",
"G  c #6F7C7B",
"H  c #737474",
"J  c #757873",
"K  c #7A7C75",
"L  c #747678",
"P  c #747B7B",
"I  c #7D7D7D",
"U  c #77847D",
"Y  c #7D837C",
"T  c #82837E",
"R  c #7D7E81",
"E  c #817F82",
"W  c #5F909C",
"Q  c #6D898E",
"!  c #7D8282",
"~  c #798688",
"^  c #738A8D",
"/  c #7F8C8C",
"(  c #6C8C94",
")  c #698E9E",
"_  c #738D94",
"`  c #7C8E96",
"'  c #768E9B",
"]  c #67929E",
"[  c #6D959C",
"{  c #7D9394",
"}  c #74959A",
"|  c #789798",
" . c #7C949A",
".. c #7D9A9D",
"X. c #5D9DAD",
"o. c #5B9CB3",
"O. c #728BA0",
"+. c #6596A2",
"@. c #6D97A6",
"#. c #6699A4",
"$. c #6C9BA4",
"%. c #639BAC",
"&. c #6B9BAB",
"*. c #749BA4",
"=. c #779AA7",
"-. c #7C9CA5",
";. c #639DB3",
":. c #6A9DB0",
">. c #59A2B6",
",. c #5BA3BB",
"<. c #67A2AE",
"1. c #6AA0AB",
"2. c #78A2A1",
"3. c #64A4B4",
"4. c #6AA5B3",
"5. c #62A4BB",
"6. c #6BA2BA",
"7. c #65AABB",
"8. c #4FABCA",
"9. c #5BA6C4",
"0. c #56A8C1",
"q. c #5DACC4",
"w. c #56ABC9",
"e. c #5CAECB",
"r. c #57B5C6",
"t. c #5DB0C9",
"y. c #58ADD3",
"u. c #53B5D6",
"i. c #5CB5D4",
"p. c #5CB9D7",
"a. c #55B6D9",
"s. c #62ACC3",
"d. c #67ADC8",
"f. c #63B2CA",
"g. c #61B4D2",
"h. c #4DBCE1",
"j. c #52BFE4",
"k. c #838483",
"l. c #868985",
"z. c #8C8C86",
"x. c #828789",
"c. c #848B8A",
"v. c #8B8E89",
"b. c #918F8A",
"n. c #8D9286",
"m. c #86928D",
"M. c #8E918B",
"N. c #949387",
"B. c #93938C",
"V. c #98948E",
"C. c #838D91",
"Z. c #8B8E92",
"A. c #849493",
"S. c #8B9592",
"D. c #8C9994",
"F. c #8E9996",
"G. c #889798",
"H. c #839A9A",
"J. c #89999B",
"K. c #929791",
"L. c #959691",
"P. c #929892",
"I. c #929992",
"U. c #969992",
"Y. c #999B94",
"T. c #929D9B",
"R. c #9B9D99",
"E. c #9A9F99",
"W. c #95A09A",
"Q. c #96A29F",
"!. c #9EA19A",
"~. c #A2A59E",
"^. c #9EA7A2",
"/. c #9BA8A1",
"(. c #A1A6A0",
/* pixels */
"                                                                                                                                ",
"                                                                                                                                ",
"                                                                                                                                ",
"                                                                                                                                ",
"                                                                                                                                ",
"                      O $ * * * * * ; ; - - - - - - ; , ; , > , < < < > > > > > > > > > > > > & & & & & & @ .                   ",
"                      * M K K Y Y T T T T T K K I Y Y Y Y Y U U ! ! U U P G G G G P G G L L F F C C C C x 8 o                   ",
"                      ; T R.Y.R.R.!.!.!.~.~.~.~.~.(.(.(.~.~.^.^./././.Q.Q.Q.Q.Q.T.T.T.T.F.F.F.G.S.S.S.S.P u o                   ",
"                      - J v.v.B.B.B.K.P.P.P.Y.R.R.R.R.R.R.!.!.T.W.W.W.W.W.T.F.F.G.A.m.c.c.c.c.c.c.c.c.x.L u O                   ",
"                      - H v.v.v.M.M.M.B.B.B.B.B.L.K.K.K.P.P.P.F.F.F.F.M.M.m.m.c.c.c.c.c.c.k.k.! ! ! ! k.L i O                   ",
"                      - H v.v.v.v.M.B.B.B.B.B.B.B.K.P.K.P.P.P.F.M.M.M.M.M.m.c.c.c.c.c.c.c.x.! ! ! ! ! ! L i O                   ",
"                      - J v.v.v.v.v.M.M.B.B.B.B.K.P.P.P.B.K.P.F.M.M.M.m.m.v.v.c.c.c.c.c.x.k.! ! ! ! ! ! P u O                   ",
"                      - J z.z.v.z.K J A S S J J J K K K K Y Y Y Y ! l.k.k.! ! ! P P P L L P R ! ! ! ! ! I u O                   ",
"                    . ; J z.v.M.l.B r 4 4 4 6 6 6 6 6 4 6 9 0 0 0 e r e e w w 0 8 8 8 8 7 8 e D k.! ! ! P i o                   ",
"                    . ; K z.v.M.v.M 1 0 p a a a s a p e q q q 9 6 6 1 1 < < , , , , > > > : # m k.! ! ! L u o                   ",
"                      ; K v.z.v.v.b 1 k J K T T T T Y Y K K K J J H A A A Z Z Z C Z Z V x g > m x.! ! ! L u o                   ",
"                    . ; K v.z.v.z.b 1 l Y v.B.B.B.B.B.B.B.B.M.M.M.v.v.v.v.c.c.c.l.k.k.! F z > m x.! ! ! L u o                   ",
"                    . ; K v.z.v.z.b 1 l z.V.V.L.L.L.L.P.V.B.B.B.B.B.M.v.v.c.c.l.l.k.k.k.F z > x k.! R ! L y o                   ",
"                      ; K v.z.v.v.n 1 b B.L.L.L.L.V.L.V.B.B.B.M.M.M.M.v.v.l.l.k.k.k.k.! F j : m k.! ! ! L y o                   ",
"                      ; K v.v.M.v.M 1 c M.V.L.L.V.B.V.B.B.B.B.M.M.M.M.v.v.l.l.k.k.k.k.! F h & C k.R R ! L u O                   ",
"                      ; K v.v.M.M.N 1 l z.V.B.B.B.V.L.V.B.B.B.M.M.M.M.v.v.l.l.l.c.l.k.k.H h & C k.R R R H i O                   ",
"                      , Y v.z.M.M.N 1 l z.V.V.V.B.V.L.V.B.B.B.M.M.M.M.v.l.l.l.c.c.l.k.k.H d * C k.R R R L i O                   ",
"                      1 k.v.z.B.z.N 1 l z.B.B.V.B.L.L.B.B.B.M.M.M.M.v.l.l.c.l.k.k.k.k.! F s * Z k.I R R L i O                   ",
"                      1 T v.z.B.z.N 1 l z.B.B.V.B.B.L.B.B.B.M.M.n.b.b.z.l.l.k.k.k.k.k.! F p - Z k.I I I H i O                   ",
"                      1 k.z.z.B.B.N 1 l z.B.B.B.V.L.L.B.B.B.B.B.n.M.b.l.l.k.l.k.k.k.k.! H p > A k.I I I H i O                   ",
"                      1 T z.z.B.B.n 1 b z.B.B.B.V.V.B.B.B.B.M.F.M.m.Z.l.l.k.k.l.k.k.k.k.H i , L k.I I I H e .                   ",
"                      1 T z.z.B.z.l 1 N z.B.B.V.V.B.B.B.B.B.F.S.A.A.Z.v.c.l.k.k.k.k.k.! H u , H k.I I I H w .                   ",
"                      1 k.v.z.B.B.l 6 B z.B.B.V.V.L.L.L.S.{ *.$.#.+._ { A.c.k.k.k.k.k.! H u , H k.I I Y H 9 .                   ",
"                      1 T B.z.B.z.f 6 B z.B.B.V.V.V.L.P...4.f.i.e.q.3.#. .C.k.k.k.k.k.k.H r , L ! I I I H 9                     ",
"                      1 k.B.z.B.z.f 6 B z.B.V.V.B.V.P...3.p.g.5.3.3.q.5.[ { c.k.k.k.k.k.H e , L ! I I I H 9                     ",
"                      1 k.B.b.B.B.l 6 B z.B.V.V.V.K.F.$.t.i.6.-.2.*.;.e.X.' C.k.k.k.k.I H e , H k.I I I L 2                     ",
"                      1 k.B.B.B.B.l 6 B z.V.V.B.B.K.S.1.p.q.*.J.G.H.&.0.,.O.C.k.k.k.k.I H e , H I I I I H 9                     ",
"                      4 z.B.B.B.B.l 6 N z.B.V.B.B.L.S.<.p.7.-.G.M.A.*.,.9.) C.k.k.k.k.I Z e , H I I I I H w                     ",
"                      6 z.b.b.B.B.l 6 B N.B.V.B.B.K.G.:.i.7.-.G.m.A.@.>.0.) C.k.k.k.k.I Z e , H I I I I H w                     ",
"                      6 l.b.b.B.B.l 5 S B.B.V.B.V.K.F.*.t.r.&...{ } o.w.X.^ c.k.k.k.k.I Z e , H k.I I I H w                     ",
"                      9 z.b.z.B.z.l 6 S B.B.V.B.B.B.F...4.g.s.;.%.o.w.e.W ~ x.k.T T k.I Z e , H k.I I I H w                     ",
"                    . q b.b.N.B.z.f 6 S B.B.V.B.B.B.B.F.*.6.f.i.u.a.i.;.Q l.l.k.T T T I Z w 1 I I I I I H w                     ",
"                    . e B.b.b.B.z.f 6 S B.B.V.B.B.B.B.L.G.| $.q.j.y.%._ c.z.l.k.T I T I Z w 1 I I I I I H w                     ",
"                    . t B.b.b.B.z.f q J B.B.V.V.B.B.N.B.S.G.H.,.u.>.*.A.c.l.k.Y Y I T I C w 1 I I I I I H w                     ",
"                    X t B.B.B.B.z.a q J B.B.V.V.B.B.B.S.{ ..*.>.u.>.[ ( ^ x.l.Y Y I k.I M 9 9 k.I I I I H w .                   ",
"                    X a V.B.B.B.z.a q J B.B.V.B.B.B.M. .&.5.,.8.h.w.;.X.+._ l.T T E k.I M 2 w k.I I I I D w .                   ",
"                    X f V.B.B.B.z.a q S z.V.V.B.B.M.M.| 4.s.9.y.j.i.d.s.<.( ! k.E E k.I M 2 9 k.I I I I Z w .                   ",
"                    O f V.B.N.B.z.a 6 S z.B.V.V.B.B.M.A.} [ ] o.i.>.+.] ( ~ k.k.E R k.I Z 2 9 k.I I I I Z w .                   ",
"                    O f V.B.B.B.z.p 6 S B.V.V.B.B.b.b.S.S.G.H.%.i.;.} ` / k.k.k.I I k.I Z 2 w k.I I I I Z w .                   ",
"                    O l V.z.B.B.z.t 6 J B.B.V.B.B.B.b.b.b.S.G.:.g.;.` c.k.T k.k.k.I E I Z 2 9 k.I I I I Z w O                   ",
"                    + l V.B.B.B.z.t 6 J B.B.V.B.B.B.b.B.n.n.A.$.7.&./ c.l.k.k.k.k.I I I Z 2 1 I I I I I Z w .                   ",
"                    + b V.B.B.B.z.t q K B.B.V.B.B.b.b.B.v.z.m._ [ _ c.c.k.k.k.k.k.I I I H 2 , I E I I I Z w .                   ",
"                    + b V.B.B.B.z.t 6 K V.B.B.B.B.B.B.B.b.z.v.c.c.c.c.k.T k.k.k.k.I k.R H 2 * H I I I I Z w O                   ",
"                    + b V.B.B.V.z.t 6 K B.B.B.B.B.B.B.B.v.l.z.z.l.l.k.T T k.k.k.k.I I I H 2 $ Z I I I I H w .                   ",
"                    + b V.B.B.B.z.t 6 K V.B.B.B.B.B.B.M.z.z.z.z.l.k.k.T k.k.k.k.E I I I H 9 # Z I I I I H e O                   ",
"                    + b V.B.B.B.z.t 6 K V.B.B.B.B.B.B.B.z.z.l.l.l.k.T T k.k.k.k.E I I I H 2 # Z I I I I I i O                   ",
"                    # n V.B.B.B.z.p 6 J V.B.B.B.B.B.B.B.z.z.l.l.z.k.k.k.k.k.k.k.I I E I Z 2 # Z I I I I I i O                   ",
"                    # n V.B.B.B.z.p 1 B z.N.B.B.B.B.M.v.z.z.l.l.z.k.k.k.k.T k.E k.I k.I M 2 O M I I I I I i O                   ",
"                    $ n U.B.B.B.z.a 1 N K n.B.B.B.B.B.v.z.z.l.l.l.k.k.k.k.k.k.k.k.k.I Z M 2 O M k.I I I I i O                   ",
"                    $ b V.B.B.z.z.a 1 N J T N.V.B.B.B.v.z.z.l.l.l.k.k.k.k.k.k.k.I I Z M x 2 O M I I I I I i O                   ",
"                  . 1 l S S B B N t 6 k b v n B Z B N n b l l l l k j f f s s s p i w w w * O i s i i p d w O                   ",
"% * * % * * * % $ = 6 q q q q q q 6 6 6 6 5 3 1 1 1 , ; - * * % % $ # + + O O O O O O O O O O # # O # # # $ O                   ",
"# # + + + + # + + O X X X X . X X X X X X X X . . . . . . . . . .                 . . . .                                       ",
"                                                                                                                                ",
"                                                                                                                                ",
"                                                                                                                                ",
"                                                                                                                                ",
"                                                                                                                                ",
"                                                                                                                                "
};
