/* XPM */
static char *_0f000bf09154f58804b488cab8295e7uS61xldI9R8gyF6C[] = {
/* columns rows colors chars-per-pixel */
"64 64 245 2 ",
"   c #000000",
".  c #0D0303",
"X  c #0C0B0B",
"o  c #1B0100",
"O  c #150A08",
"+  c #13100F",
"@  c #151312",
"#  c #1A1817",
"$  c #240000",
"%  c #2C0100",
"&  c #2D0E05",
"*  c #330000",
"=  c #3B0000",
"-  c #340C05",
";  c #3C0B02",
":  c #291208",
">  c #38170A",
",  c #2A1B16",
"<  c #221D1C",
"1  c #361815",
"2  c #2A211C",
"3  c #3B231B",
"4  c #2A1F21",
"5  c #2C2423",
"6  c #2A2726",
"7  c #372A29",
"8  c #3D3535",
"9  c #440200",
"0  c #4B0100",
"q  c #490B02",
"w  c #580801",
"e  c #481507",
"r  c #5A1608",
"t  c #4F1C18",
"y  c #680400",
"u  c #760500",
"i  c #671A07",
"p  c #771706",
"a  c #6E1B11",
"s  c #45210D",
"d  c #432319",
"f  c #61240A",
"g  c #732A11",
"h  c #712B15",
"j  c #462B27",
"k  c #542F2D",
"l  c #47322F",
"z  c #4B342C",
"x  c #483938",
"c  c #553C38",
"v  c #70302F",
"b  c #6C383A",
"n  c #723C3A",
"m  c #4C413B",
"M  c #5A443D",
"N  c #65423C",
"B  c #7A4135",
"V  c #473F43",
"C  c #4D4243",
"Z  c #564542",
"A  c #694E45",
"S  c #7A4846",
"D  c #6E5654",
"F  c #8C0100",
"G  c #880700",
"H  c #940900",
"J  c #8B1B02",
"K  c #971A04",
"L  c #9B1C00",
"P  c #A91B02",
"I  c #AA1009",
"U  c #B81E08",
"Y  c #8C2D00",
"T  c #962804",
"R  c #8D3C00",
"E  c #9A3800",
"W  c #862715",
"Q  c #992718",
"!  c #86341C",
"~  c #98391D",
"^  c #AB2604",
"/  c #B82605",
"(  c #A83400",
")  c #B82A18",
"_  c #B93816",
"`  c #913222",
"'  c #983428",
"]  c #8A3936",
"[  c #973736",
"{  c #AA2E2A",
"}  c #BE2B24",
"|  c #A33A24",
" . c #A63B29",
".. c #B93628",
"X. c #B93A36",
"o. c #C31907",
"O. c #DF1E05",
"+. c #E51B06",
"@. c #F5180A",
"#. c #E81C14",
"$. c #FA1C14",
"%. c #C62D05",
"&. c #D8280A",
"*. c #CB3705",
"=. c #DA360C",
"-. c #C72A18",
";. c #D92B16",
":. c #C83619",
">. c #D63815",
",. c #DD351D",
"<. c #DA3B1C",
"1. c #EC2303",
"2. c #E42807",
"3. c #EC2E03",
"4. c #EB250A",
"5. c #EC2B0A",
"6. c #F52C03",
"7. c #F72509",
"8. c #F52B0B",
"9. c #FB2C0B",
"0. c #E53605",
"q. c #ED3402",
"w. c #EC3B02",
"e. c #ED340C",
"r. c #EC3C0B",
"t. c #F23403",
"y. c #F33B02",
"u. c #FA3A01",
"i. c #F3350B",
"p. c #FB330C",
"a. c #F33D0B",
"s. c #FB3C0C",
"d. c #E72816",
"f. c #EC2B12",
"g. c #F22E12",
"h. c #F62B14",
"j. c #E33313",
"k. c #EE3413",
"l. c #E4341B",
"z. c #EB361C",
"x. c #E93C18",
"c. c #F23513",
"v. c #FB3412",
"b. c #F33A14",
"n. c #FB3C17",
"m. c #CA2D28",
"M. c #C73728",
"N. c #D53423",
"B. c #D73A27",
"V. c #C53936",
"C. c #E43624",
"Z. c #985507",
"A. c #B94405",
"S. c #A75608",
"D. c #B7451A",
"F. c #A76B04",
"G. c #B96B0B",
"H. c #87443A",
"J. c #8A463B",
"K. c #994432",
"L. c #AA4829",
"P. c #BC4327",
"I. c #AB4B3A",
"U. c #B94838",
"Y. c #B16F22",
"T. c #D7470C",
"R. c #DA4419",
"E. c #D35013",
"W. c #E44503",
"Q. c #EC4303",
"!. c #ED4B02",
"~. c #E3430D",
"^. c #EC420E",
"/. c #EC4B0A",
"(. c #F34304",
"). c #FB4405",
"_. c #F44B04",
"`. c #FC4B03",
"'. c #F3440B",
"]. c #FB430B",
"[. c #F44B0A",
"{. c #FB4B0C",
"}. c #EB520C",
"|. c #F55103",
" X c #FB5204",
".X c #F9540C",
"XX c #E54213",
"oX c #EC4214",
"OX c #E54B13",
"+X c #EB4B13",
"@X c #E3441B",
"#X c #E8441C",
"$X c #E64A1B",
"%X c #EB4B1D",
"&X c #F54312",
"*X c #FD4413",
"=X c #F44914",
"-X c #FA4E12",
";X c #F5481C",
":X c #E65619",
">X c #F75613",
",X c #CB4729",
"<X c #D94627",
"1X c #DB5528",
"2X c #C54436",
"3X c #D64B36",
"4X c #C85538",
"5X c #DB5634",
"6X c #E44324",
"7X c #E54B27",
"8X c #F04F29",
"9X c #E15428",
"0X c #EA5635",
"qX c #D9612D",
"wX c #C77B28",
"eX c #D56336",
"rX c #E06321",
"tX c #E86333",
"yX c #AE3E48",
"uX c #9C4043",
"iX c #AA4746",
"pX c #AB504C",
"aX c #BD6850",
"sX c #CC5845",
"dX c #C16445",
"fX c #DC6248",
"gX c #E36749",
"hX c #989100",
"jX c #A89E00",
"kX c #CE851F",
"lX c #C3BC09",
"zX c #D9973A",
"xX c #C1B521",
"cX c #D3C824",
"vX c #FBD534",
"bX c #FAE829",
"nX c #F4E837",
"mX c #F3BA4F",
"MX c #FFDE48",
"NX c #FBC958",
"BX c #F4DB5C",
"VX c #FFF342",
"CX c #FEE658",
"ZX c #F6CF6A",
"AX c #FED762",
/* pixels */
"                                                                                                                                ",
"                                                                                                                                ",
"                                                                  < 6                                                           ",
"                                                                  5 .                                                           ",
"                                                                  7 > 3                                                         ",
"                                            X                     1 J.> 5                                                       ",
"                                            @ O 5                 $ pXI.%                                                       ",
"                                              o o <               $ U.4Xt <                                                     ",
"                                              , B % @             * ,X<X .%                                                     ",
"                                              & aXW %           + q 9Xx.2Xw 5                                                   ",
"                                              - sX2X0 3         7 i R.2.C.Q &                                                   ",
"                                            X q 3XB. .*         > W >.i.g.M.%                                                   ",
"                                            > i 6Xz...w l       % | ~.].v.B.q l                                                 ",
"                                            *  .j.f.N.W %     8 0 P.r.u.p.B.a 1       5 6                                       ",
"                                          7 w 3Xj.5.l.Q * <   l i ,Xr.).*X6XQ =       : .                                       ",
"                                          $ U.,.5.8.g.) = C   % W <Xw.{.].@X..9 8     o O                                       ",
"                              + .       1 a <X5.6.n.4.M.9 j D 9 ,Xj.].'.{.OX,Xw x   j k j 2                                     ",
"                              2 M :     $ Q ,.1.p.v.g.B.r - e W <.e.=X{.-X+XR.p j 7 % ] n &                                     ",
"                              > A %     0 2XC.2.i.s.b.:.r % y ,X=.Q.{.-X-XoX<.K 1 l = iXK.*                                     ",
"                            @ e aXi 3 x p ..;.k.w.].r.<.T p M.<.^._. X[.-X^.x.) % o y 4XU.w 7                                   ",
"                            7 h ,X_ $ % W ,X=.r.(.).y.n.&.>.z.e.&X{.|.|.|.'.k.m.9 9 ,X>.5Xp z                                   ",
"                            d ` R.<.w % Q <.&.'._.`.].s.2.2.3.n.].{.|.|.|._.e.;.u Q R.;XXXT s                                   ",
"                            e  .6X<.p 9 V.l.e.).`.`.).].a.0.[.w.'.[.[.|..X[.e.j.-.7X=Xw.=X_ * #                                 ",
"                            q  .8Xx.Q u B.d.i.).`. X`.(.a.'.Q.!._.[.{.[.[.[.e.3.r.r.'.{.Q.,X9 V                                 ",
"                            e  .8Xe.) P C.5.w._.|.|..X{.&Xw.(.(.Q.`.`.(._.Q.].q.).w.'.'.[.E.q x                                 ",
"                            e L.%X].>.=.2.1.{.!.>X}.[.'.r.&Xt.q.w.(.).-X].'.t.].(.(.[./.|.E.i x                                 ",
"                            ; L.:XQ.r.0.5.n.Q.W.~.OX=X^.oXb.8.1.5.3.s.s.e.n.v.s.r.Q.|.!.|.E.g z                                 ",
"                            ; K.:XQ.(.3.1.b.~.:XE.T.A.T.7Xj.4.@.+.5.O.c.z.z.c.k.x./.|._. XOXW d                                 ",
"                            d ` 1X-X(.a.5.;.<X( R Z.F.Z.T -.d.#.h.+.C.-.U U ;.,.#X^._.`.`.$X` ;                                 ",
"                            c ! 1X-X_.'.;X=.^ S.mXCXCXAXzXJ C.#.4.;.P K D.A.L *.@X^._.`.{.$X| = @                               ",
"                            M g 9X{..X!.[.*.E mXMXbXnXnXCXS.%.d.&.=.Y AXCXMXkXT R.oX[._.].%X| = #                               ",
"                            m f 1X{..X.XQ.*.E AXvXbXhXcXCXF.P f.f.U wXBXlXVXAXE T.r.'.'.).%X .* @                               ",
"                            x ; 1X=X_.{.a.*.Y NXvXbXjXcXZXR %.5.4./ S.ZXxXCXNXT T.a.Q.(.).XX .= X                               ",
"                              ; D.=X{.).q.=.( G.vXMXCXNXZ.T j.1.1.=.J Y.mXzXE ^ 0.a.(.(.y.$X' -                                 ",
"                              - D.$X=Xa.i.r.>.P L ( E T P 6X4.7.+.k.;.^ L ^ %.l.8.v.a.r.'.9X! d                                 ",
"                              z Q R.oX&Xq.e.x.;.,.-.:.N.;.g.7.7.p.4.h.C.l.;.j.g.9.p.i.r.=X1Xi l                                 ",
"                              x p 5XXX&Xw.w.t.b.k.k.5.g.v.1.7.8.5.2.h.8.c.a.t.3.u.t.].r.r.1Xq m                                 ",
"                                0 4X@X&Xy.y.p.3.q.q.8.9.7.8.9.6.e.i.9.7.t.q.3.u.y.q.].r.#XP.= 7                                 ",
"                                > ! 7Xn.w.w.s.n.r.0.c.v.g.v.6.6.t.i.9.p.t.q.q.w.w.a.y.r.0XJ j                                   ",
"                                2 r 5X;X&Xa.q.r.r.=.j.l.z.k.t.y.q.y.8.p.s.q.w.y.Q.^.a.#X4X0 m                                   ",
"                                  - | 0X&Xy.Q.Q.XX>.L _ 0X@XXXW.W.w.b.i.a.w.y.y.(.'.%X5X! 1                                     ",
"                                  < 9 sX7X&X[./.~.$X:.G F / >.T.T.+Xb.e.r.w.y.).'.OX<XU.% 7                                     ",
"                                    7 t gX7XOXQ.-X^.8X<X/ H F H H F I k.;X=Xy.'.~.1XdX= m                                       ",
"                                      1 a fX9X+X'.-X=XoX$X7X9X:.B.<X#XoX^.+X&X$XgXL.q l                                         ",
"                                        > f 4X9X%X'.*Xs.*XoX~.%X$X=.Q.}.}.OX0XfX! % Z                                           ",
"                                          & 9 ~ eXtX8X=X;X+XOXOXOX:X:XE.rXqX| w & x                                             ",
"                                              & e h L.4X5XtXtX1XqXeX4XL.! 9 1 x                                                 ",
"                                                # s 0 y u T G L J u y 0 9 c                                                     ",
"                                                  N Q / P F G G G H P { [ X                                                     ",
"                                                  v X.-.N.B.-.B.N.N.B.) U.n                                                     ",
"                                                7 [ X.F o.#.d.+.#.d.-.u { iX7                                                   ",
"                                                v yX[ ' -.d.$.$.$.#.M.] ] uXn X                                                 ",
"                                                b pXb c -.f.@.@.@.d.M.H.5 v n 8                                                 ",
"                                                k v x c ) 2.4.7.@.&.M.H.  Z D X                                                 ",
"                                                  X   Z ^ j.&.&.2.,...H.                                                        ",
"                                                      x ) &.:.P o.;...H.                                                        ",
"                                                      7 ) &.:.Q ..N.} ]                                                         ",
"                                                      4 ) ;...] [ M.m.[                                                         ",
"                                                      < Q M.' b n { X.]                                                         ",
"                                                      + [ I.J.l x ] iXS                                                         ",
"                                                        M S N 5 + A S 5                                                         ",
"                                                                  . @                                                           ",
"                                                                                                                                ",
"                                                                                                                                "
};
