/* XPM */
static char *_03eb154f4c843acffdad23839610948vChLrG7t1KgiwfDZ[] = {
/* columns rows colors chars-per-pixel */
"64 64 113 2 ",
"   c black",
".  c #040000",
"X  c #030904",
"o  c #000002",
"O  c #16130A",
"+  c #252013",
"@  c #312E1E",
"#  c #3C3925",
"$  c #4A3D28",
"%  c #833214",
"&  c #993B2B",
"*  c #AE4431",
"=  c #8B4A31",
"-  c #614B2A",
";  c #0E0503",
":  c #3E1E0C",
">  c #C92314",
",  c #F42F15",
"<  c #FF3926",
"1  c #FF4D2E",
"2  c #E45530",
"3  c #BB5F20",
"4  c #6E340E",
"5  c #DA2F0D",
"6  c #FF271A",
"7  c #FE4915",
"8  c #FD551F",
"9  c #FE5E28",
"0  c #F18832",
"q  c #C56923",
"w  c #8D571B",
"e  c #080101",
"r  c #B42813",
"t  c #FF1C08",
"y  c #FE320B",
"u  c #FD400E",
"i  c #FE611B",
"p  c #FC791F",
"a  c #DC7322",
"s  c #EE2215",
"d  c #FE2505",
"f  c #FE380B",
"g  c #FE5413",
"h  c #FE5A10",
"j  c #FD5F12",
"k  c #FF670B",
"l  c #FF7110",
"z  c #5E370E",
"x  c #5D0907",
"c  c #FC4205",
"v  c #FE4C07",
"b  c #FE550B",
"n  c #490706",
"m  c #BD0F0A",
"M  c #FF1207",
"N  c #FF2B04",
"B  c #FD3B03",
"V  c #FD4003",
"C  c #FE4504",
"Z  c #FE5106",
"A  c #FF5E07",
"S  c #2B1107",
"D  c #B50909",
"F  c #F71508",
"G  c #FD2E05",
"H  c #FD1F03",
"J  c #FE3203",
"K  c #FE3604",
"L  c #230403",
"P  c #9A0A09",
"I  c #690607",
"U  c #3C0504",
"Y  c #300404",
"T  c #540606",
"R  c #780A07",
"E  c #E51008",
"W  c #FA3804",
"Q  c #FD1202",
"!  c #FE1802",
"~  c #A94E10",
"^  c #190303",
"/  c #FE0E01",
"(  c #FE0B01",
")  c #FD3402",
"_  c #FD4C02",
"`  c #8F0B08",
"'  c #850A09",
"]  c #FC1901",
"[  c #FF0800",
"{  c #D05D12",
"}  c #FF0C08",
"|  c #FF0502",
" . c #BE9715",
".. c #A47713",
"X. c #4A2309",
"o. c #FE0101",
"O. c #F0BE12",
"+. c #FECD0C",
"@. c #FABA14",
"#. c #A90808",
"$. c #C90907",
"%. c #EF0E07",
"&. c #FC0603",
"*. c #E1B115",
"=. c #FFDB0A",
"-. c #FE4902",
";. c #FFF00B",
":. c #DF0806",
">. c #9F210A",
",. c #D40C09",
"<. c #EB6911",
"1. c #C1490D",
"2. c white",
/* pixels */
"                                                                                                                                ",
"                                                                                                                                ",
"                                                                                                                                ",
"                                                                                                                                ",
"                                                                                                                                ",
"                                                    . X X X o o o                                                               ",
"                                                O + @ # $ # $ $ # @ @ @ + + O o                                                 ",
"                                          . X + @ $ % & * * * * * = = - $ $ $ # # @ @ @ @ @ + + O O X                           ",
"                                      . ; O : % > , < < < < 1 1 1 1 1 2 3 * = = - - - - - - # # # # @ + O ;                     ",
"                                  . ; O + 4 5 6 6 , < 7 8 9 8 9 9 9 9 9 9 9 9 9 9 9 0 0 0 0 q w - # @ @ @ + O ;                 ",
"                              . e ; X : r 6 t y u 7 8 8 i i i i i i i 8 8 8 8 8 8 8 i p p p p p p p a 3 w $ + O O .             ",
"                          . e ; X O % s t d f 7 g g h j i i i i i i i i 8 8 7 8 8 8 8 i i i i i i i k l p p 3 z O O e           ",
"                        e e o X x > t t y u c v b b b h h h h h h h h j j g 7 7 7 7 7 7 u 7 7 7 7 7 g h h k l p w O ; e         ",
"                    e e   o n m M t N f B B B V c C v Z b b g g b b b g b g u u u u y y y y y y y f u C v b A k p q S X .       ",
"                . e o e n D M M F , G N N N N N y f B V v Z Z Z Z Z b Z Z v V B B G H t H t t t t d N J K c v Z A l q O   .     ",
"          . e . . L x P D P I U L L Y U T R P m E t G W W V C v v v Z v v V K K y H Q M M M M M M M ! H d G B C Z h l ~ . e     ",
"  . .       L n x I n Y .                     o ^ T m d y W W B V C C C V W K G H Q / / ( ( / / / / Q Q Q H G ) V _ A l 4 o .   ",
". e ^ U I ` ' n L .       .                   . e o o R d ) ) ) J K ) ) ) ) G ] / ( ( ( [ [ [ ( ( ( ( M M M t d K c Z A { ; e   ",
"x ` D m ` U .   .                                 e o o P N ) ) J J J J J d ] ( ( [ [ [ [ [ [ [ ( [ } D I T x R m f C Z l 4   . ",
"L L ^ e                             e e e . . e e e o o x d ) J ) J N d ] Q [ [ [ [ | | | | | [ ( F I : w  . ...X.I W _ A { . . ",
"e .                               . e e e o       e L x m N ) J G H Q ( | [ ( [ | | | | | | o.| } ' z O.+.+.+.+.@.z ` C Z k X.  ",
"                                      . o I ` ` #.$.%.d N J ) J d Q ( [ [ ( ( [ | | | | [ ( &.| %.U *.+.+.=.=.+.+.*.x W -.k % . ",
"                                      . o P M t t d y B W J ) N ] / ( [ [ [ [ | | | | | | &.&.| $.: +.+.=.;.;.*. .@.4 5 C b { o ",
"                                          U } ! G f C -.C B ) N ! / / ( ( [ | | | | | o.o.o.o.| :.: @.+.=.;.;. .z @.4 5 V Z j S ",
"                                        . . #.} H J B -._ C B N Q ( / / ( | o.| | | | o.o.o.o.| } x  .=.=.=.=.=.+. .x G B _ k X.",
"                                        . o ; #.F G ) K B B K d / [ ( / ( | | | | o.o.o.o.o.o.o.[ m z *.=.=.=.+. .n $.N B _ k 4 ",
"                                . . .           m d ) ) J ) G H Q [ ( ( [ | | | | o.o.o.o.o.o.o.&.[ D n - ....w x m ! d K -.k 4 ",
"                          .       o ^ Y n x R >., ) ) G J J G H Q [ ( ( [ | | | | o.o.o.o.o.o.o.&.&.} E #.P #.$.F / ] d K -.k 4 ",
"                      .   o L x ` > , f y J K K ) W ) ) J J J d Q ( ( ( [ | | | | o.o.o.o.o.o.o.o.&.&.&.( [ ( [ [ ( Q d K -.k 4 ",
"                      ; T D %.H N J J ) B V c C C C V B B ) J J d / | | [ | o.| | | o.o.o.o.o.o.&.&.&.&.&.( [ [ ( ( Q N B _ k z ",
"                  e I ,.} M N ) ) W B c -.-.-.-._ _ -.-.C V ) J G t ( [ [ [ | | | | o.o.o.o.o.o.&.&.&.( &.( ( [ ( / ! G V Z k : ",
"            .   Y $.[ ( H G ) c C -._ _ _ _ -.-._ _ _ _ _ -.V J G d Q ( [ [ | | | | | | | | | | | &.,.D } ( ( ( [ / H J c Z <.^ ",
"          .   x %.| ( d J ) B c V V V V C -.-.-.-._ _ -.-._ -.B J G ] ( ( ( [ | | | | | | | | | | &.:.Y ' } / ( ( ! d K -.A { o ",
"        .   I } | Q N B J J J J G J J ) ) B V C C C -.-.-.v C K ) J ] ( ( ( [ [ | | | | | | | | | | } #.o x %./ Q H N B v k % o ",
"          n &.| Q G N H Q Q / / Q Q H d G J J ) ) W B c _ C B ) J G ] ( [ [ [ [ | | | | | | | | | ( ( M P o Y ,.! d K C b l :   ",
"        ^ :.[ } H ! } [ | | [ | | | [ ( M t N G G G G G B B ) J ) G ] / ( ( ( [ [ [ [ [ [ [ [ [ [ &.Q / M m Y ^ >.G V _ A { e . ",
"        ` } | E ` T U U U n n n x R ` #.m $.:.%.F M M M Q N ) J J J d ! / / ( ( ( [ [ [ [ [ [ [ [ [ ( ( ( M F r ` 5 _ b l z     ",
"    . ^ %.| P ^                 . .       . ; L Y U I m } ! G ) J J J N ] Q ( ( ( [ [ [ [ [ [ [ [ ( ( ( / ! H N f C Z k 3 e .   ",
"      T } P o o .                             .   o o o n $.N ) W K K ) G d ] Q ( ( ( [ [ [ [ ( ( ( / Q ! H G B C Z A <.S       ",
"    o R } L                                   . e o o o e D M G V C -.C V B G d ] / / / ( ( / / / Q ! H N J B C Z A l X.e .     ",
"    o ` } ^                                   e   n m E F t t d y B c C C C B ) N H H H ] ! ! ] H H N J B V -.Z k <.X.o         ",
"    o ' } L                                 e o T } Q m ' ' ' #.E t d d G ) K J J G G N N N N N G ) B V -.Z k l ~ S             ",
"      T } U                               . . e R I ^       o   ^ n ' $.%.M t d N J V V B B V V c C _ Z A k 1.X.o               ",
"      e ,.' o .                           e e .       .     .   .     . L n R #.$.E G c Z b Z Z A A j { % S o o .               ",
"      o U ' e e                             . .                     .         o e ^ L L Y >.1.~ % X.L o                         ",
"        o ; e e                                                                       . .   o o o e ;   .                       ",
"          . . e                                                                         . X.: T > ,.R                           ",
"                                                                                        ; I L U %.:.P e                         ",
"                                                                                        Y R n x #.:.D ^                         ",
"                                                                                        x x ' ' R &.,.U                         ",
"                                                                                      e n U $.D U %.%.T                         ",
"                                                                                        . ^ :.:.T x #.Y                         ",
"                                                                                          U :.,.R o e                           ",
"                                                                                        . ` :.#.Y Y                             ",
"                                                                                  ^ I P #.,.$.I U ' ^                           ",
"                                                                                  ' E :.:.$.#.Y ' D Y                           ",
"                                                                                  ` :.$.D #.I . P D n                           ",
"                                                                                  U I x n Y e e P #.n                           ",
"                                                                                        .     ; D #.Y                           ",
"                                                                                              e P ` ;                           ",
"                                                                                              . ^ L                             ",
"                                                                                                                                ",
"                                                                                                                                ",
"                                                                                                                                "
};
