/* XPM */
static char *c32eee375de14733e32d4a51ed486ab0bq5Ldc8xV7q9E5FY[] = {
/* columns rows colors chars-per-pixel */
"64 64 234 2 ",
"   c #000000",
".  c #0A0201",
"X  c #030803",
"o  c #0D0A05",
"O  c #150203",
"+  c #1C0303",
"@  c #1A0C06",
"#  c #130E08",
"$  c #081106",
"%  c #14130B",
"&  c #1D160D",
"*  c #171C0E",
"=  c #191B10",
"-  c #230404",
";  c #2C0304",
":  c #250C06",
">  c #290F07",
",  c #330304",
"<  c #3C0404",
"1  c #320B05",
"2  c #3D0807",
"3  c #281708",
"4  c #361A0A",
"5  c #221D11",
"6  c #3C1F10",
"7  c #3F2009",
"8  c #292417",
"9  c #382315",
"0  c #332C1D",
"q  c #27321D",
"w  c #342F21",
"e  c #333321",
"r  c #3A3324",
"t  c #393B28",
"y  c #440405",
"u  c #4A0404",
"i  c #470808",
"p  c #4D0909",
"a  c #540605",
"s  c #5D0604",
"d  c #540408",
"f  c #5A0509",
"g  c #5D090A",
"h  c #42190A",
"j  c #491909",
"k  c #58160A",
"l  c #640206",
"z  c #6B0606",
"x  c #630906",
"c  c #650809",
"v  c #6A0B0A",
"b  c #790707",
"n  c #7A0A0A",
"m  c #741507",
"M  c #4A2308",
"N  c #4D290F",
"B  c #58270C",
"V  c #523A13",
"C  c #602E0F",
"Z  c #68360D",
"A  c #6D340E",
"S  c #73340B",
"D  c #7D330D",
"F  c #76371B",
"G  c #443A25",
"H  c #553324",
"J  c #7E3726",
"K  c #3D4227",
"L  c #63410E",
"P  c #684F12",
"I  c #48412B",
"U  c #594B28",
"Y  c #5A4D2C",
"T  c #494432",
"R  c #5E4532",
"E  c #5F5330",
"W  c #69472F",
"Q  c #794731",
"!  c #860607",
"~  c #850907",
"^  c #8D0907",
"/  c #840C0B",
"(  c #8C0B0B",
")  c #970706",
"_  c #920B06",
"`  c #9A0409",
"'  c #930B0A",
"]  c #9A0D0B",
"[  c #851108",
"{  c #8C1209",
"}  c #9D1509",
"|  c #A70607",
" . c #AD020A",
".. c #A50C0A",
"X. c #AC0B09",
"o. c #B50707",
"O. c #BB0505",
"+. c #B40C0A",
"@. c #B90A0A",
"#. c #AA1307",
"$. c #BA1609",
"%. c #B91311",
"&. c #9C280B",
"*. c #86390E",
"=. c #842419",
"-. c #AD2B14",
";. c #993B2B",
":. c #AC3D31",
">. c #CC0C05",
",. c #C70608",
"<. c #C30C0A",
"1. c #DC0605",
"2. c #D50906",
"3. c #D60A0A",
"4. c #DD0A0B",
"5. c #C8160A",
"6. c #DF1307",
"7. c #D41109",
"8. c #E20504",
"9. c #ED0B07",
"0. c #E40C0B",
"q. c #EB0E09",
"w. c #FE0502",
"e. c #FE0A01",
"r. c #F30B09",
"t. c #FE0C09",
"y. c #E71309",
"u. c #F41407",
"i. c #FD1303",
"p. c #FD1B03",
"a. c #FF130A",
"s. c #F4190A",
"d. c #FE1C0A",
"f. c #FF0C13",
"g. c #D32B0E",
"h. c #CF2013",
"j. c #FD2404",
"k. c #FD2C04",
"l. c #FD2409",
"z. c #F42C0A",
"x. c #FE2B0A",
"c. c #E0340A",
"v. c #FD3403",
"b. c #FD3B03",
"n. c #F33508",
"m. c #FE330B",
"M. c #FD3C0A",
"N. c #EE2215",
"B. c #FF291B",
"V. c #FC3916",
"C. c #C72D24",
"Z. c #FF3426",
"A. c #F8372A",
"S. c #8E5316",
"D. c #B44F10",
"F. c #AA5211",
"G. c #936A10",
"H. c #BA641A",
"J. c #A87C16",
"K. c #954F2F",
"L. c #8A5120",
"P. c #8E4C30",
"I. c #AB502E",
"U. c #AA4532",
"Y. c #B14232",
"T. c #B76825",
"R. c #CD500E",
"E. c #C95712",
"W. c #FD4403",
"Q. c #FD4B03",
"!. c #FC440A",
"~. c #FD4B09",
"^. c #FD5304",
"/. c #FF5C05",
"(. c #FD530C",
"). c #FD5C0C",
"_. c #FE4414",
"`. c #FD4914",
"'. c #FD4F1C",
"]. c #FE5512",
"[. c #FE5B13",
"{. c #FD541C",
"}. c #FD5D1A",
"|. c #C9651A",
" X c #D66312",
".X c #FF6207",
"XX c #FF6C05",
"oX c #FE650C",
"OX c #FF6B0C",
"+X c #FF730D",
"@X c #EA6912",
"#X c #FD6215",
"$X c #FF6C17",
"%X c #FD631C",
"&X c #FF7314",
"*X c #FB791A",
"=X c #C0542E",
"-X c #FE4927",
";X c #FF432C",
":X c #FD5522",
">X c #FD5C24",
",X c #FF512E",
"<X c #FF5D29",
"1X c #E45530",
"2X c #FF5233",
"3X c #C56928",
"4X c #DC7322",
"5X c #FA6225",
"6X c #FF612C",
"7X c #EF7924",
"8X c #FE7523",
"9X c #FF7E23",
"0X c #F17D31",
"qX c #B98D16",
"wX c #BF9416",
"eX c #B5A313",
"rX c #C39B17",
"tX c #DCA817",
"yX c #DEBD12",
"uX c #E4AF17",
"iX c #FABA15",
"pX c #EE8A32",
"aX c #F78D33",
"sX c #FCCC05",
"dX c #FFCC0A",
"fX c #FED707",
"gX c #FEDC07",
"hX c #FED40A",
"jX c #FEDA0B",
"kX c #FBC514",
"lX c #FFD313",
"zX c #FEE50A",
"xX c #FFEF0B",
"cX c #FFF511",
/* pixels */
"                                                                                                                                ",
"                                                                                                                                ",
"                                                                                                                                ",
"                                                                                                                                ",
"                                                                                                                                ",
"                                                                    X X X X                                                     ",
"                                                  % 5 8 0 e e r G I K G r e 8 #                                                 ",
"                          . # & 5 8 0 0 w 0 0 r G I T T R P.K.U.Y.Y.Y.:.;.J H 0 5 o                                             ",
"                    o & 8 w r t t K U E Y Y W Q Q K.I.=X1X2X,X,X,X;X;XZ.Z.Z.A.C.=.9 * o                                         ",
"                o & 8 q q 0 G U K.3XpXaXpX0X5X<X6X6X<X<X<X<X<X<X<X>X>X:X-XV.B.B.B.g.F = # o                                     ",
"              # = 5 V L.T.4X7X9X9X*X8X8X8X%X{.{.:X:X:X:X:X>X5X%X%X%X%X%X}.{.`.V.x.d.B.-.6 $ o o                                 ",
"          . @ % V H.*X*X$X$X%X%X#X#X}.}.}.{.{.'.'.'.{.{.}.%X%X%X}.}.}.[.[.[.].].`.M.x.d.N.=.% X o .                             ",
"        . o & S.*X&X#X).[.].`.`.`.`.`.`.`.`.`.`.`.~.].[.[.).[.[.[.[.[.).).(.(.(.~.!.M.m.l.d.h.k X   .                           ",
"        X 3 |.*XoX/.(.~.!.M.M.m.m.m.m.m.m.V.V.!._.!.].(.(.(.(.(.].].(.(.(.~.!.!.b.b.b.M.m.x.p.a.%.i     .                       ",
"        @ 3X+X/.^.~.W.b.v.x.l.d.d.d.d.d.d.l.m.M.M.b.~.(.(.(.(.(.(.(.(.~.M.M.m.x.x.x.x.x.x.x.z.s.a.a.+.p                         ",
"    .   F.+X).~.W.b.k.l.d.p.i.i.a.a.a.a.a.i.d.m.v.b.b.~.~.~.~.~.~.!.W.b.v.k.d.y.$.] n a 2 1 - - < z ' +.] g -                   ",
"      A +X/.~.W.v.k.p.i.i.i.e.e.e.e.e.e.e.e.i.j.v.v.v.b.W.W.W.W.b.b.v.m.l.$.a O                         ; p v c i -             ",
"    .  X/.~.W.v.l.d.i.i.i.w.e.e.e.e.e.e.e.e.e.e.p.k.v.v.v.v.v.v.v.v.v.l.n                                     - p / ( v y + .   ",
"    S OX^.W.m.$.b s d l +.t.e.e.e.e.w.w.w.e.e.e.e.p.k.v.v.v.v.v.v.v.x.]                                             < ^ %.%.' g ",
"     X/.~.M.v N G.rXwXG.7 l r.w.e.w.w.w.w.w.w.w.w.e.i.p.j.k.v.v.v.v.l.s     . .       . . .                             . + ; - ",
"  M OX^.W.{ L iXdXdXdXdXiXV ! w.w.w.w.w.w.w.w.w.w.e.w.w.e.i.j.k.v.v.k.<.x - .         . . .                                     ",
"  *..X~.n.k uXdXdXfXgXhXdXtX2 9.w.w.e.w.w.w.w.w.e.e.e.w.e.e.i.l.v.v.v.k.l.u.>.X.^ _ v                                           ",
"   X).W.g.S iXqXyXxXxXgXsXkX7 >.w.w.w.w.w.w.w.w.w.e.e.w.e.e.e.p.k.v.v.v.b.m.l.l.d.a.]                                           ",
"> oX^.W.g.A iXL eXcXxXzXdXiXh 4.w.w.w.w.w.w.w.w.w.w.w.e.e.e.e.p.k.v.b.W.~.!.M.k.p.t.y                                           ",
"j oXQ.b.k.f qXlXjXjXzXfXjXrXf t.w.w.w.w.w.w.w.w.w.w.w.e.e.e.e.i.k.b.W.~.Q.b.v.l.t...                                            ",
"Z oXQ.b.k.<.j rXlXjXgXlXuXZ ,.e.w.w.w.w.w.w.w.w.w.w.w.e.e.e.e.e.l.m.b.b.v.v.k.u...O                                             ",
"A oXQ.v.l.p.,.g S.J.J.P p o.w.w.w.w.w.w.w.w.w.w.w.w.w.e.e.e.w.e.p.k.v.v.v.v.k.$.                                                ",
"A oXQ.v.l.i.t.u.,. .`  .0.w.w.w.w.w.w.w.w.w.w.w.w.w.w.w.e.e.w.e.p.k.v.v.v.v.v.n.&.m k j 1 O                                     ",
"A oXQ.b.j.p.w.e.w.w.w.w.w.w.w.w.w.w.w.w.w.w.w.w.w.w.w.w.e.e.e.i.j.v.v.v.v.v.v.v.v.v.v.m.M.z.5._ s -                             ",
"B oXQ.b.k.p.w.e.e.e.e.e.w.w.w.w.w.w.w.w.w.w.w.w.w.w.w.w.w.w.e.j.v.v.v.b.b.W.W.W.W.W.b.b.v.v.v.k.d.q.+.f O                       ",
"h oXQ.b.k.p.e.e.e.e.e.w.e.e.e.w.w.w.w.w.w.w.w.w.w.w.e.e.e.e.d.k.v.v.b.W.~.~.Q.Q.Q.Q.Q.~.W.b.v.v.v.k.i.t.3.z .                   ",
"@ @X^.W.v.p.e.e.e.e.e.t.+.3.e.w.w.w.w.w.w.w.w.w.w.w.e.e.e.i.x.k.v.W.~.Q.Q.Q.Q.Q.Q.Q.Q.Q.Q.Q.W.W.W.v.k.d.w.w.<.,                 ",
"  E./.Q.v.j.p.e.e.e.t.~ ; 0.w.w.w.w.w.w.w.w.w.w.w.w.e.e.e.p.k.v.b.~.~.Q.Q.Q.Q.Q.Q.Q.Q.W.W.W.W.W.W.b.v.v.j.e.w.9.s               ",
"  *.OX~.b.k.d.i.e.u.g   ..t.w.w.w.w.w.w.w.w.w.w.w.e.e.e.e.p.v.v.b.W.~.Q.Q.~.W.W.W.b.b.v.v.v.v.v.v.v.v.v.b.k.i.w.w.z             ",
"  7 +X^.W.v.j.p.7.,   ] a.e.e.w.w.w.w.w.w.w.w.w.e.e.e.e.e.p.k.v.v.b.W.~.W.b.b.v.v.v.v.k.l.p.p.i.e.e.i.p.p.k.k.i.w.t.u           ",
"  . |./.Q.W.m.} O ; %.t.e.e.w.w.w.w.w.w.w.e.e.w.e.e.e.e.e.p.k.v.v.v.b.b.v.k.k.k.k.k.d.i.e.w.w.w.w.w.w.w.w.t.i.l.w.w.4.+         ",
"    C &X/.~.c.{ $.u.i.e.w.w.w.e.e.e.e.e.e.e.e.e.e.e.e.e.p.j.v.v.v.v.k.i.i.i.i.u.y.6.>.O.| ^ b l u y i < < < a _ 0.w.t.^         ",
"      H.XX^.W.M.k.j.p.t.e.e.e.e.e.w.w.w.w.e.e.e.e.e.i.p.k.v.v.v.v.k.i.t.<.l y , + .                             + ) w.9.+       ",
"      4 @X.X^.W.b.k.j.p.i.e.e.e.e.e.e.e.e.e.e.e.i.p.l.k.v.v.v.v.v.k.>.u                                             ..t.a       ",
"        N &X/.^.W.b.v.k.j.p.i.i.e.e.e.e.e.e.i.p.l.k.b.W.W.Q.W.W.k.p.@.        .                                     + t.b       ",
"          M @XOX^.Q.W.b.v.k.j.p.p.p.p.p.p.p.j.k.v.b.W.W.W.W.b.m.l.d.p.s.y.@.u   .                                   + t.^       ",
"            > F.OX.X^.~.W.b.v.k.k.k.k.k.k.k.k.v.v.v.v.k.l.l.p.6.#.[ / { $.i.f.d                                     - t.!       ",
"                M D.oX.X^.Q.W.W.b.b.b.b.b.b.v.k.l.d.a.q.<.~ u +           O c n .                                   < t.a       ",
"                    > D E.)..X/.^.~.(.(.!.z.y.>.X.b i +                             .                               ~ 3..       ",
"                          : M *.F.R.&.1 ; - O .                                                                   . / <         ",
"                          o .                                                                                   .   O           ",
"                          m 5.h.k h j                                                                           .               ",
"                        . ) 8.q.2 : v .                                                                                         ",
"                        + o.8.X.f p n ,                                                                                         ",
"                        < 2.w.b ( / x f                                                                                         ",
"                        a r.r.< +.<.2 p .                                                                                       ",
"                        ; X.x a 1.4.+                                                                                           ",
"                              b 3.4.,                                                                                           ",
"                            ; ,  .8.^                                                                                           ",
"                          O ! < z ,.2.X.) x +                                                                                   ",
"                          ; o.~ , | >.1.8.q./                                                                                   ",
"                          u O.]   c | O.,.1.'                                                                                   ",
"                          u  .]     , u s z <                                                                                   ",
"                          , | +..                                                                                               ",
"                          . ^ ]                                                                                                 ",
"                            + +                                                                                                 ",
"                                                                                                                                ",
"                                                                                                                                ",
"                                                                                                                                "
};
