/* XPM */
static char *_8de03dd7fd24f6fc7e21cce4101d1daX9CMTn1CZkJnsE56[] = {
/* columns rows colors chars-per-pixel */
"64 64 192 2 ",
"   c #000000",
".  c #050907",
"X  c #03060A",
"o  c #05090C",
"O  c #0A0C0D",
"+  c #0F100F",
"@  c #060D13",
"#  c #0B0E11",
"$  c #060F18",
"%  c #0D1114",
"&  c #06111A",
"*  c #0D141B",
"=  c #0C181F",
"-  c #121415",
";  c #161817",
":  c #13161A",
">  c #15191C",
",  c #1A1C1E",
"<  c #19201F",
"1  c #0B1622",
"2  c #0E1923",
"3  c #0E1D2B",
"4  c #151C22",
"5  c #1A1D22",
"6  c #121E28",
"7  c #191D29",
"8  c #201C24",
"9  c #172022",
"0  c #1D2125",
"q  c #13212C",
"w  c #1E2329",
"e  c #142432",
"r  c #1A2632",
"t  c #172935",
"y  c #192936",
"u  c #1C2D3B",
"i  c #212326",
"p  c #22262A",
"a  c #28262D",
"s  c #24292D",
"d  c #292C2E",
"f  c #332E2F",
"g  c #212630",
"h  c #252C33",
"j  c #2A2E32",
"k  c #222E3A",
"l  c #2B2F38",
"z  c #2C3135",
"x  c #25313C",
"c  c #2D3339",
"v  c #2F393F",
"b  c #313336",
"n  c #3A3537",
"m  c #32353A",
"M  c #34393D",
"N  c #383C3E",
"B  c #243544",
"V  c #343740",
"C  c #353B42",
"Z  c #3A3E43",
"A  c #303F4E",
"S  c #374144",
"D  c #3C4245",
"F  c #3D4449",
"G  c #404447",
"H  c #41464B",
"J  c #444A4E",
"K  c #484B4E",
"L  c #464C51",
"P  c #494D52",
"I  c #475054",
"U  c #4D5156",
"Y  c #4E5459",
"T  c #515456",
"R  c #51555A",
"E  c #54595D",
"W  c #595E5F",
"Q  c #565C61",
"!  c #595E64",
"~  c #5B6166",
"^  c #5E6469",
"/  c #5F696B",
"(  c #61666C",
")  c #636A6D",
"_  c #656C71",
"`  c #6A6D74",
"'  c #667174",
"]  c #6C7276",
"[  c #6D757A",
"{  c #70757A",
"}  c #737A7D",
"|  c #757D82",
" . c #7A7F86",
".. c #778084",
"X. c #7A8286",
"o. c #7D858C",
"O. c #7E888D",
"+. c #7F8890",
"@. c #808486",
"#. c #83858A",
"$. c #828B8D",
"%. c #848C92",
"&. c #898E94",
"*. c #869095",
"=. c #8A9296",
"-. c #8D9599",
";. c #8F9A9B",
":. c #90969B",
">. c #93999E",
",. c #959CA1",
"<. c #999EA2",
"1. c #96A1A4",
"2. c #99A1A6",
"3. c #97A4A8",
"4. c #9AA5AA",
"5. c #9FA9AD",
"6. c #9FA9B0",
"7. c #A0A5AB",
"8. c #A1AAAD",
"9. c #A4ADB2",
"0. c #A9AFB3",
"q. c #A7B1B5",
"w. c #A6B1B5",
"e. c #A8B1B5",
"r. c #AAB1B5",
"t. c #A9B1B6",
"y. c #A8B2B6",
"u. c #A9B3B7",
"i. c #A9B2B7",
"p. c #ABB3B6",
"a. c #ABB4B7",
"s. c #ACB4B7",
"d. c #AAB2B7",
"f. c #A6B5BA",
"g. c #A9B3B9",
"h. c #AAB3B8",
"j. c #A8B4B9",
"k. c #A9B5B9",
"l. c #ABB5B9",
"z. c #A9B6B9",
"x. c #ABB6B9",
"c. c #ABB5BB",
"v. c #A9B6BB",
"b. c #AAB6BA",
"n. c #ABB6BA",
"m. c #AAB6BB",
"M. c #ABB6BB",
"N. c #ADB5B9",
"B. c #ADB5B9",
"V. c #ACB6B9",
"C. c #AFB5BA",
"Z. c #ACB6BA",
"A. c #ACB7BA",
"S. c #ACB6BB",
"D. c #ADB7BB",
"F. c #AEB7BB",
"G. c #AEB6BB",
"H. c #A9B7BD",
"J. c #ABB6BC",
"K. c #ABB7BC",
"L. c #ABB7BE",
"P. c #AAB5BC",
"I. c #ADB7BC",
"U. c #ADB7BE",
"Y. c #AFB7BE",
"T. c #AEB7BC",
"R. c #ADB6BC",
"E. c #AEB8BB",
"W. c #ABB8BD",
"Q. c #AAB9BF",
"!. c #A9B8BE",
"~. c #ADB8BD",
"^. c #AEB8BC",
"/. c #AFB9BD",
"(. c #ACB8BE",
"). c #AFB9BF",
"_. c #ADBABF",
"`. c #AEBBBF",
"'. c #AEB8BD",
"]. c #B0B7BD",
"[. c #B1B7BD",
"{. c #B1B8BD",
"}. c #B2B8BD",
"|. c #B0BABD",
" X c #B0B8BF",
".X c #B0BABE",
"XX c #B1B9BE",
"oX c #ACB6C1",
"OX c #AEB8C1",
"+X c #B1B7C0",
"@X c #B1BAC0",
"#X c #B1B9C1",
/* pixels */
"        4 k q q q q 6 6 4 4 = = = * * * * * * * * * * * * * = 4 6 6 r k h h k j j j j j j j j j j x x x c v v x c Z Z           ",
"        # & x F F F F F F F F F F D Z C C C C C C C C C C C Z Z Z Z C C C C C C C C C C C C C C V v c v v v c x h > 0           ",
"        o 4 _ -.-.-.-.>.,.,.,.,.,.>.-.-.=.*.%.%.%.%.%.%.*.*.*.*.%.%.%.+.+.o.o.o.o.o.o.+.$.%.%.%.+.o.o.o.o.o.o.o.` h 4           ",
"        o 4 } e.l.e.e.e.h.h.h.e.h.h.e.e.w.w.9.9.9.9.9.9.9.9.9.9.9.9.9.6.5.5.9.9.9.0.w.h.h.e.e.e.w.w.w.w.e.e.e.e.*.M 5           ",
"        o 4 } e.B.B.B.B.B.l.l.l.B.B.B.l.l.l.l.K.l.l.l.l.l.l.l.K.K.K.l.l.l.l.l.l.K.I.I.I.B.B.B.B.B.B.B.B.B.B.B.B.-.Z 5           ",
"        O 9 } a.B.B.B.I.^.^.^.B.B.B.l.l.l.l.l.l.l.l.l.l.K.W.W.^.^.^.^.W.K.K.^.^.@XOXI.I.B.E.^.^.^.^.^.^.B.E.B.B.>.H 0           ",
"        O 9 } s.{.B.I.I.I.K.l.l.l.l.l.l.l.K.K.K.K.K.K.K.K.K.W.W.^.^.^.K.K.I.^.{.{.{.].^.^.^.^.{.{.{.{.{.{.{.{.{.,.H 0           ",
"        O 9 } B.{.I.I.l.j.w.w.j.l.j.w.w.f.j.j.j.l.K.K.K.K.H.H.K.I.I.I.OXOX@X@X].].].{.{.^.^.^.{.^.^.E.B.B.B.B.].,.D 5           ",
"        O 9 } B.B.E.^.l.9.4.1.4.4.3.3.3.4.4.4.5.5.9.9.9.w.w.j.a.e.e.B.B.B.].{.].].].].].{.^.^.^.^.^.E.E.B.B.B.{.<.D 5           ",
"        O 9 } B.B.B.^.h.5.-.O...| | ......X.X.X.X.o.$.$.$.$.$.*.*.=.=.:.:.>.>.<.<.<.<.,.,.,.1.2.5.e.B.E.E.^.^.{.<.Z ,           ",
"        O 9 } B.E.B.E.a.2.} D h h h h h h j j d d z z b M N N Z D H H J K K K K P P P K L K U Y ~ $.e.E.^.^.^.{.,.C >           ",
"        # 9 } B.^.l.B.a.,.E * X o X X X X X X           . .     X . . . . . . . o o o . X X . . > ~ 5.B.^.^.^.{.>.C >           ",
"        O 5 } B.^.l.B.h.,.P o o # X X X X X X           X X X X X   X X     X     X X   X X   X o Y 8.l.^.^.^.{.,.C >           ",
"        O 5 } B.^.B.B.B.>.P o X o X X X o o .     . o o @ $ $ @ @ @ X X X   X X . o o X X X o   . Y 8.l.^.^.^.{.,.C >           ",
"        O 5 } B.^.I.B.B.>.H o X X o O O # # # . X O % & 6 k x k r q > $ o o o . o o o . X . . . . R 8.B.^.^.^.{.>.C >           ",
"        O 5 } B.^.I.B.B.>.F o X . O % - % # @ o X o @ @ 2 k A B x k 6 $ o X X . O # # # O O O . . E 8.B.^.^.^.{.>.C >           ",
"        # 5 } B.OXI.B.B.>.H # # - - - - - % % O . X o @ & e B B B u 1 @ o X . o % - - - - % + . o E 8.B.^.^.E.B.>.C >           ",
"        # 0 } B.+X].I.B.,.J # % ; ; - - ; - - - . . # & 1 3 e u u q = @ @ o O # - ; ; - - - - O O E 8.l.E.E.E.B.>.Z 5           ",
"        % 0 } B.].oX{.].<.J # % ; ; - ; ; ; ; ; O . # % 2 q 3 t t 2 = % # O # - ; ; ; ; ; - ; - # E 8.l.E.^.E.B.,.H 5           ",
"        - p } B.oXI.@X].<.J # % ; ; ; ; , , , ; O O # * 4 q e y e 1 * % # O # - ; , , ; ; ; , - # E 8.l.^.^.E.B.,.H 0           ",
"        % p | B.oXI.{.].<.H # - > ; , , , , , ; % O % % = 2 e r q 1 * % # o O % ; , , , , 5 , - # W 8.l.^.^.E.B.<.J 5           ",
"        # p | B.oXI.@XI.,.H # : , , , , , , , - O O O # & 1 q 3 6 4 % % # O O % ; , , , , 5 , % % ~ 9.l.^.^.E.B.<.L >           ",
"        O p ..K.oXI.@XB.,.H # ; 0 5 5 , , , , - . . . o @ & 2 = 1 = # # O . o O - , , 5 5 > , - - ^ 9.l.^.^.E.B.2.P -           ",
"        O p ..K.oXI.{.B.,.H # > 0 0 0 , 5 5 , - o . O o @ & 6 = = * # % % # O % ; , 5 5 5 , 5 - : ^ 9.l.^.^.B.I.<.L %           ",
"        O p X.K.oXoX@XI.,.F % 5 i p i i i i , - o . # @ @ & 4 * = = % - - - % % , i i i i w 0 : > / 9.l.^.^.E.E.,.H %           ",
"        O p X.K.oXOX@XI.,.Z % p d d d d d d 0 - O O % % $ % = % & * % % % % O % i d d d s s p > > ) 9.l.^.^.B.E.>.Z :           ",
"        # p X.K.oXOX{.B.:.M : d j z z d j d 0 - % - ; 4 > = 6 > : : - : : - % - i z d d j z d < > ) 9.l.^.^.B.B.:.M 5           ",
"        O p X.K.oXI.I.B.-.c : j b b b z z d , - - ; ; 5 4 > 7 5 5 5 , 5 , > ; - 5 b b z z z d 0 9 ) w.^.^.^.^.B.-.m 0           ",
"        O w ..K.oXI.I.B.*.z > c m m m m m d > O O - # - - - > - - - % % % # % O - j b b m b z 0 > ( 9.I.^.^.B.B.=.c 0           ",
"        O 0 | K.oXOX{.I.&.z 4 m N N M M M z , - ; , , 5 5 5 8 5 , , > , 5 , ; % , b M M N N M 0 > / 9.^.^.^.^.B.*.z 0           ",
"        O 0 | K.oXOX@X{.&.z 5 M D D D Z Z m 5 - , i a a a a a a d d a a a i 0 , d Z Z Z Z D D d > ) 9.^.^.^.^.B.*.j 0           ",
"        O 9 ..K.oX@X@XI.&.z 5 C F F F D D Z 5 # : 5 i 0 5 i i 0 0 i 0 0 0 0 5 , M H D Z D D F d 9 ) 0.I.^.^.^.^.*.z 0           ",
"        O 9 X.I.OX@X@XI.%.z 0 D H H H H F M ; o # % - % % % : : : : ; , 5 5 > ; z G H H H H G j 9 _ 0.I.^.^.^.{.-.z 5           ",
"        O 0 X.I.oX@X{.B.%.z w F J H H H D s : - > 5 0 0 0 0 0 p p p d d a s i % ; M H J H H H z 9 _ 0.I.^.^.^.^.-.c 5           ",
"        O w o.I.oX@XI.B.%.z p H P L L J M 5 , i p s j j z z z z z z b b z z j 5 # 0 F P L P J z 0 _ 0.I.^.^.^.^.-.m 5           ",
"        O p $.I.oXOXI.h.%.z p L U P P P M ; > 5 > , 0 i 0 p j s s s d s s a p > o % C U P U L c 5 _ 9.I.^.^.^.{.-.m 5           ",
"        o s %.I.oXOXI.h.%.z s L U U U U M - ; , : : , 5 5 0 w 5 ; : - - : ; : % @ # M R R Y P c 5 _ 9.I.^.^.I.{.:.m 4           ",
"        o j *.I.K.I.I.h.%.c s P R R Y P M ; 5 d a p s j j j p w p s s p p p d s 0 : m R E R Y m q _ 9.I.^.^.I.{.:.m 5           ",
"        o c =.I.K.I.I.h.%.c h U E R R Y M 5 5 j z j b N m m l h m D D Z Z N M M z > c R E E U c w ` 9.I.^.^.I.{.-.m >           ",
"        o M =.^.oXK.I.h.%.c j E E E E R m > , i i 0 a a a h g w p p p p p p p d p : m Q ! Q Y c s [ 0.I.^.^.I.].-.m >           ",
"        o M =.OXoXK.I.h.%.c j Q ! ! E Z 5 - , , ; > , , 5 7 7 4 > ; : : : ; > > - % m ! ~ ! E c s [ w.^.^.^.I.{.-.m :           ",
"        o Z -.OXoXK.I.h.$.c c Q ! ~ H w 0 d b b d s j f b m c c b b z z z z b z d 0 j R ^ ~ E z s [ e.^.^.^.I.].-.m :           ",
"        o H >.I.oXK.I.h.o.j C ! ^ ! m : p z b b j s z n M V C C M M M M M M M M m d 5 D ^ ^ ! z s } e.^.^.^.I.].-.m %           ",
"        o P ,.I.oXK.I.h.o.j C ^ ( ! z % * > > ; - : ; , 7 5 w w 7 0 0 0 5 5 0 9 5 > % c ~ ) ! z h | 0.I.OX^.I.I.-.c %           ",
"        o U ,.I.oXK.I.h.o.j C ( ) ^ Z 0 s j j d p 0 d d j j z z j j j j j j z z z j 5 M ^ ` ~ z j | 9.I.^.^.I.B.-.c %           ",
"        O E <.I.oXK.I.h.X.j C _ _ ) H s M Z Z Z M m Z G Z F D D H H H H H H H H H M p Z ) ] ^ z h | 9.I.^.^.I.B.-.m %           ",
"        O E 2.I.oXK.I.h.X.j C _ ` _ Z * > 5 0 i i i d z z c m m m m m c z z z j s 5 : Z ) [ ( z s } 9.I.^.^.^.B.-.M #           ",
"        # ! 2.I.oXK.I.h.X.h C ` ` Y h 4 4 5 5 : ; > 5 0 0 0 0 0 i i 0 0 0 0 0 0 0 5 > z ~ [ ) z h | 9.I.^.^.^.l.-.M @           ",
"        # ^ 4.I.OXK.I.e.| p Z ` Q j > c M M M b j j z m m z z m M M M C C C Z Z Z M j w P [ ` c h } 9.I.I.I.l.a.=.M @           ",
"        % ) 8.I.OXI.I.0.| w Z ( M # * 5 5 0 i 5 5 7 0 0 0 0 0 w p p p p p p p p p w 4 % F { ] m s } w.I.^.I.l.a.=.M O           ",
"        % ` 9.I.OX^.I.0.[ q F _ m 7 m c s h j s a p s j j z m m c z z j j j j z z c j 4 H } [ m w [ w.{.^.w.9.a.=.m O           ",
"        % ' 9.I.^.K.I.w.[ w F ` F j H H H J J H G H L U U Y R R Y U U U P P L L P U Z z E  .} m 0 ] 9.{.h.%.$.9.-.m o           ",
"        % ` 9.^.^.K.K.j.| p L ] Z 5 a j j j m M m M Z H H H H D C M M M m c z j c c p w Y X.| C 4 ` 9.{.9.! I 4.-.M o           ",
"        % ` 9.^.K.K.^.j.| s H ^ j 0 h j p 7 w p 0 5 0 p p p p p p p p p p p w 0 0 w p 0 c ` | C 4 ) 9.B.8.L s *.-.M o           ",
"        % ` 9.^.l.W.^.w.| w j C 5 z D G Z m z z j s z c c m M C Z D D H H H H F F F L D s H ] M > ) 0.].7.F 4 | *.m o           ",
"        % ` 8.l.l.^.^.0.| w @ 4 0 s j j s s s s 0 0 p h j j z z z z z z z z z z z z c x w w J c : ( r.B.,.H w ^ } w .           ",
"        % ) 9.E.x.x.^.0. .w o h Z F F Z C C M M z z m M M C Z C Z Z C C C C C C C C C C C 0 w s % U 7.<.{ L F R ) 5 X           ",
"        % ' 8.e.a.E.E.r.X.0 % Z Q ! ! ! Q E E Y U U E ! ! ~ ~ ~ ^ ^ ~ ~ ! ! ! ! ! Q Q ! Q z % > X j #.` j J _ H L 5 X           ",
"        % ) $.) ' $.5.0.X.p : H ^ ^ ^ ~ ! ! ! Q Y Y ! ~ ~ ^ ^ ( ( ( ( ( ^ ^ ~ ^ ^ ^ ^ W P j @ @ X , _ R - E &.Z p # X           ",
"        O K K D F S E [ ) 0 : L / _ ^ ^ ~ ~ ~ Q U Y ! ~ ~ ^ ^ ( ( ) ) ) ) ( ^ ) ) ( ^ H p > o X X , P H : ! <.R # X X           ",
"        . p K ..*.) M z M ; % F ^ ^ ^ ^ ^ ^ ^ ! Y Y ! ^ ^ ^ ^ ( ) ) ) ) ) ) ) ) _ ) ! z % O o X # j Z d # R <.) % X X           ",
"          p [ 8.w.-.! W J : X p D F H H F F D Z M C F H H J K L L L L L L P L L P P G 0 o X X # # m m ; # M } Q 5 o X           ",
"          h ) X.} ' o.%.T - X O % % % % % % % % % % * * * * % * : : : : : 4 > : % * : o X X X o X - # X X % w 5 % @ X           ",
"        X m X.;.` ~ | ~ h ; 5 w w w w w w w s s s s s s s s s s h h h j j c c j 4 > p p s s h h s s > : s z h j c C j           "
};
