/* XPM */
static char *_355adaf5d774927abbf50a19c5453c440tW0YdUOcljJjhT[] = {
/* columns rows colors chars-per-pixel */
"64 64 199 2 ",
"   c None",
".  c #000406",
"X  c #00050A",
"o  c #01090D",
"O  c #020B13",
"+  c #050E1A",
"@  c #090E1C",
"#  c #010711",
"$  c #031116",
"%  c #02131B",
"&  c #0A121D",
"*  c #06181E",
"=  c #08191E",
"-  c #011722",
";  c #0C1522",
":  c #051923",
">  c #031E2B",
",  c #072027",
"<  c #03212B",
"1  c #092129",
"2  c #032432",
"3  c #0B2531",
"4  c #042936",
"5  c #0C2B34",
"6  c #032C3B",
"7  c #0F2C38",
"8  c #12313E",
"9  c #052F42",
"0  c #033243",
"q  c #033549",
"w  c #04384B",
"e  c #0A3B4E",
"r  c #143642",
"t  c #183740",
"y  c #183A44",
"u  c #183F49",
"i  c #053E54",
"p  c #034255",
"a  c #05435A",
"s  c #04495F",
"d  c #0F465A",
"f  c #1D4553",
"g  c #1A4856",
"h  c #204956",
"j  c #034B65",
"k  c #034B69",
"l  c #084C63",
"z  c #07516A",
"x  c #0B516B",
"c  c #0F5065",
"v  c #1B5569",
"b  c #095975",
"n  c #055B7A",
"m  c #065772",
"M  c #2F5A62",
"N  c #2B5C69",
"B  c #275362",
"V  c #325F6A",
"C  c #0A627E",
"Z  c #1B657C",
"A  c #34616F",
"S  c #326475",
"D  c #366C7D",
"F  c #3A6C7A",
"G  c #056384",
"H  c #086282",
"J  c #066B8C",
"K  c #0B6D8F",
"L  c #096788",
"P  c #0C6D90",
"I  c #076E91",
"U  c #0A7396",
"Y  c #06759B",
"T  c #09769D",
"R  c #07769B",
"E  c #2C6C80",
"W  c #376C81",
"Q  c #3B7284",
"!  c #3E778B",
"~  c #297F9D",
"^  c #357A91",
"/  c #067AA3",
"(  c #0A7BA5",
")  c #067EAA",
"_  c #0B7EAB",
"`  c #467D8B",
"'  c #457887",
"]  c #427E90",
"[  c #0681AE",
"{  c #0A81AD",
"}  c #1889AA",
"|  c #0383B3",
" . c #0A82B2",
".. c #0486B9",
"X. c #0B87BA",
"o. c #0589BB",
"O. c #098BBC",
"+. c #2686A5",
"@. c #418090",
"#. c #4A8699",
"$. c #548B9B",
"%. c #4A8DA1",
"&. c #4E96AB",
"*. c #5E9FAF",
"=. c #5593A6",
"-. c #599FB4",
";. c #629EAE",
":. c #48A1BD",
">. c #58A0B7",
",. c #5CA5BB",
"<. c #69A8B9",
"1. c #75AFBD",
"2. c #058DC1",
"3. c #0A8FC1",
"4. c #0590C4",
"5. c #0B92C4",
"6. c #0595CB",
"7. c #0995CB",
"8. c #0A98CD",
"9. c #079ACF",
"0. c #1898C4",
"q. c #059DD4",
"w. c #0B9DD5",
"e. c #069FD8",
"r. c #0A9FD9",
"t. c #119FDB",
"y. c #2F9FC4",
"u. c #0EA0CF",
"i. c #0BA2D6",
"p. c #07A1D9",
"a. c #0BA1DA",
"s. c #13A4D6",
"d. c #1BA7D5",
"f. c #1CA9D5",
"g. c #12A2DB",
"h. c #19A9DB",
"j. c #14A9DA",
"k. c #2FA6CC",
"l. c #22ABD5",
"z. c #2BACD4",
"x. c #24ADDA",
"c. c #2BAED9",
"v. c #33AFD4",
"b. c #2EB0D7",
"n. c #29B1DC",
"m. c #3DB4D7",
"M. c #33B3DB",
"N. c #3CB5DA",
"B. c #39B5D8",
"V. c #5CAAC4",
"C. c #5EB4CD",
"Z. c #56B0CA",
"A. c #41B4D6",
"S. c #4CB4D4",
"D. c #4EBAD7",
"F. c #45B9DA",
"G. c #4ABBDC",
"H. c #53B4D2",
"J. c #5EB4D2",
"K. c #55B9D5",
"L. c #5CBAD6",
"P. c #55BDDB",
"I. c #5CBDDB",
"U. c #60ABC1",
"Y. c #63B4CC",
"T. c #6DB5C9",
"R. c #73B3C4",
"E. c #73B9CE",
"W. c #7DBBCB",
"Q. c #61B5D2",
"!. c #62BAD5",
"~. c #6ABDD5",
"^. c #61BEDA",
"/. c #7BBED2",
"(. c #5FC0DD",
"). c #63C1DC",
"_. c #6DC3DC",
"`. c #77C0D6",
"'. c #73C2DA",
"]. c #7BC3DA",
"[. c #81BBCB",
"{. c #8ABDCD",
"}. c #82C0D1",
"|. c #8AC7D9",
" X c #8CCADC",
".X c #85CBDA",
"XX c #91C5D4",
"oX c #9AC9D5",
"OX c #93CCDA",
"+X c #9CCCD9",
"@X c #9AC7D3",
"#X c #A5CEDA",
"$X c #ACD3DC",
"%X c #B4D4DA",
"&X c #BDD6DB",
"*X c #B4D9DB",
"=X c #C3D9DC",
"-X c #CAD9DB",
";X c #C3D7D9",
/* pixels */
"                                                                                                                                ",
"                                                                                                                                ",
"                                                                                                                                ",
"                                                                                                                                ",
"                                                                                                                                ",
"                                                                                                                                ",
"                                                                                                                                ",
"                                                                                                                                ",
"                                                                                                                                ",
"                                                                                                                                ",
"                                                                                                                                ",
"                                                                                                                                ",
"                                                                                                                                ",
"                                                                                                                                ",
"                                                                                                                                ",
"                                      & + + + + + + + + + + + + + + + + + + + + + + + + + + + &                                 ",
"                                    & o . X . . . . . . . X . . . . . . . . . . . . . X X X X o +                               ",
"                                  ; o X O * = = = = = = : : : : : : : - - % % % % % % % % $ # X o &                             ",
"                                  + X $ r V F F F F F D D D D D W W E Z b m k k k j j j s p 6 % o # &                           ",
"                                & X # 7 Q <.R.T.Y.Y.Y.Y.Y.Y.C.C.Q.J.H.k.0.O.[ ( ( ( / / T Y n 6 O X #                           ",
"                              ; # o : N ;.}.|.|.]._.).).^.^.).(.(.I.G.x.a.q.5.X...|  . .{ { Y z 2 o X +                         ",
"                              + o % f $.[.+X$X$X X_.).^.I.I.I.I.P.F.M.h.a.w.9.2.....| |  .{ ) J a - X o +                       ",
"                            & X # 8 ' 1.@X%X=X*XOX_.^.I.P.G.F.N.M.x.h.a.g.a.q.6.O...| | |  .[ ( H q $ X # &                     ",
"                          & # o 1 A <.XX%X=X=X$X.X).P.G.N.M.x.j.s.g.g.a.a.a.r.w.5.o...| |  .[ [ R m 4 # X O                     ",
"                        & O X * h =.{.$X-X-X%XOX'.P.N.c.h.a.p.a.g.g.g.a.a.g.t.r.w.2.....|  .[ [ ) U l > o X +                   ",
"                        + X O t ` R.+X&X-X=X#X].^.F.x.s.a.a.g.g.a.a.a.a.a.g.g.r.r.9.2...| | [ [ [ ( L e % X o @                 ",
"                        o . * M *./.+X&X-X&X+X'.I.B.d.a.g.g.a.a.a.a.a.a.a.a.a.r.r.q.6.o. .| [ { [ ) U c : X X +                 ",
"                        o . * M *.E.XX%X;X&X+X'.I.M.s.i.a.a.a.a.a.a.a.a.a.a.a.r.r.w.6.o. . .{ _ _ ) K d * . X @                 ",
"                        O X O t ` <.W.@X%X%X+X'.I.N.d.a.a.a.a.a.a.a.a.a.a.a.a.r.w.w.6... .{ { _ _ T b 4 # X O                   ",
"                          # X % h #.1.[.oX#XOX'.I.F.x.i.a.a.a.a.a.a.a.a.a.a.a.a.q.q.5...{ { { ( ( G 0 % X #                     ",
"                          & o X : B =.T.}.XX|.'.I.P.M.s.a.a.e.e.e.e.e.e.e.e.e.a.e.9.O.| { { [ ( L i % X o +                     ",
"                            + X o 3 S -.E./.`.~.^.P.N.d.a.r.p.a.a.a.a.a.a.p.r.r.q.6.o.| [ { ) P a > X X +                       ",
"                              O X O 8 Q ,.T.~.!.!.I.F.l.i.r.p.a.a.a.a.a.a.p.r.r.q.4... .) ) Y z 2 # X O                         ",
"                                O X $ u ] U.!.!.!.L.D.b.s.r.e.e.e.e.e.e.e.p.r.w.7.2. .) ) T b 6 O X #                           ",
"                                  o X * g %.Y.!.!.L.K.B.d.q.e.e.e.e.e.e.e.e.w.q.6.X. .) / H q % X #                             ",
"                                  $ o o , N &.Y.!.L.K.F.x.i.e.q.e.e.e.e.e.r.w.9.4. .) / L i - o o +                             ",
"                                    O X o 5 D >.Y.!.L.D.c.i.q.e.e.e.q.q.e.w.w.6.o. .( K s > # X O                               ",
"                                      O X O r ! V.Q.L.K.v.s.w.w.w.w.w.w.w.w.w.4.| ( U z 2 O X O                                 ",
"                                        o X % f #.V.L.K.A.f.w.w.w.w.w.w.w.q.7.O._ R b 0 O X #                                   ",
"                                        $ o o : B &.C.L.S.z.s.w.w.w.w.w.w.q.5.X.( C w % X o                                     ",
"                                          + o # 3 S -.C.K.m.d.w.w.w.w.w.w.7.O.( J p - o o O                                     ",
"                                            O o O 8 Q ,.J.S.l.w.w.w.w.q.8.3.[ I l < o X O                                       ",
"                                              # o % u @.V.H.v.s.q.q.w.q.5...Y x 4 o X O                                         ",
"                                                # X = h %.Z.A.d.q.q.w.7.O./ n 9 O . #                                           ",
"                                                + o o 1 N &.S.l.q.q.w.5.{ G w % X o                                             ",
"                                                  O X o 5 D :.z.q.9.6.O.P a - X X O                                             ",
"                                                    # X O r ^ y.u.8.2.T j < o X O                                               ",
"                                                      o X % g ~ 0.O.( b 4 O X #                                                 ",
"                                                        X X : v +.} C 0 % X #                                                   ",
"                                                        # X o 3 v Z e % X o                                                     ",
"                                                          o . o 1 5 : o o                                                       ",
"                                                            o X X o o o                                                         ",
"                                                              o . . .                                                           ",
"                                                                o .                                                             ",
"                                                                                                                                ",
"                                                                                                                                ",
"                                                                                                                                ",
"                                                                                                                                ",
"                                                                                                                                ",
"                                                                                                                                ",
"                                                                                                                                ",
"                                                                                                                                ",
"                                                                                                                                ",
"                                                                                                                                "
};
