/* XPM */
static char *_d20bbd9885f4eb8d2c67cafcbe44dcdwWcss3ydCB2vcDIs[] = {
/* columns rows colors chars-per-pixel */
"64 64 247 2 ",
"   c #000000",
".  c #0A0202",
"X  c #0A0A04",
"o  c #040309",
"O  c #060A09",
"+  c #0B0B0B",
"@  c #110706",
"#  c #03110F",
"$  c #0D120D",
"%  c #030313",
"&  c #0D0D12",
"*  c #080818",
"=  c #0C1214",
"-  c #04131D",
";  c #0C161C",
":  c #121415",
">  c #12161A",
",  c #040925",
"<  c #06182B",
"1  c #161B23",
"2  c #081436",
"3  c #0A1D34",
"4  c #071A39",
"5  c #04282E",
"6  c #1A2326",
"7  c #0D2633",
"8  c #052739",
"9  c #102034",
"0  c #182D39",
"q  c #173339",
"w  c #212F37",
"e  c #0E1E44",
"r  c #092B43",
"t  c #152D44",
"y  c #02334B",
"u  c #0D334A",
"i  c #153447",
"p  c #0C2756",
"a  c #0D3852",
"s  c #143A58",
"d  c #0B3B65",
"f  c #103A6B",
"g  c #0E474E",
"h  c #0B445C",
"j  c #0C485A",
"k  c #15475A",
"l  c #26434A",
"z  c #254657",
"x  c #344450",
"c  c #24545E",
"v  c #33585B",
"b  c #37635C",
"n  c #0A4C69",
"m  c #174967",
"M  c #035769",
"N  c #165A6A",
"B  c #0A4770",
"V  c #0D5679",
"C  c #135471",
"Z  c #16587B",
"A  c #224D64",
"S  c #395B6A",
"D  c #2A5372",
"F  c #18646C",
"G  c #0B617B",
"H  c #196579",
"J  c #37646C",
"K  c #296679",
"L  c #356475",
"P  c #3D797A",
"I  c #41586B",
"U  c #466B76",
"Y  c #0E5483",
"T  c #155C86",
"R  c #0C668B",
"E  c #156887",
"W  c #13698C",
"Q  c #197588",
"!  c #076C94",
"~  c #1B6E96",
"^  c #197798",
"/  c #2B6C88",
"(  c #2E7487",
")  c #387584",
"_  c #2B6A94",
"`  c #297B9B",
"'  c #1171A5",
"]  c #197AA6",
"[  c #1E74B6",
"{  c #286DA0",
"}  c #227CA4",
"|  c #2A7EA9",
" . c #467686",
".. c #4D738B",
"X. c #368695",
"o. c #1685AD",
"O. c #0C8BB0",
"+. c #1989B7",
"@. c #1597B8",
"#. c #2384AD",
"$. c #2984AB",
"%. c #388BA3",
"&. c #3791A5",
"*. c #2B91BD",
"=. c #28A4B8",
"-. c #4F8D8A",
";. c #4B8B9C",
":. c #64968E",
">. c #5794AE",
",. c #589DB6",
"<. c #669EA8",
"1. c #6194B1",
"2. c #56ADBC",
"3. c #5BB3BB",
"4. c #6DA7AA",
"5. c #67A6B8",
"6. c #67B0B8",
"7. c #76B5BB",
"8. c #1C8DC8",
"9. c #059FCA",
"0. c #1A97C7",
"q. c #2899C6",
"w. c #2C95CB",
"e. c #369DC6",
"r. c #0EADCE",
"t. c #17A4CB",
"y. c #17A7D8",
"u. c #1AB5D9",
"i. c #24A4CD",
"p. c #2AA5C9",
"a. c #34A8C7",
"s. c #29A8DA",
"d. c #29B4DA",
"f. c #38B5D4",
"g. c #08ADEA",
"h. c #15AAE7",
"j. c #06B7E8",
"k. c #03B3ED",
"l. c #0BBBEC",
"z. c #1DB4E5",
"x. c #13B5EB",
"c. c #13BDEB",
"v. c #1AB9E8",
"b. c #1AADF0",
"n. c #04B4F2",
"m. c #03BDF4",
"M. c #0ABCF4",
"N. c #03BEFC",
"B. c #0BBCFB",
"V. c #15B6F2",
"C. c #13BCF3",
"Z. c #1BBCF5",
"A. c #12BBFD",
"S. c #36ADE0",
"D. c #27B8E6",
"F. c #25BCF6",
"G. c #31BBFA",
"H. c #42B8D6",
"J. c #7BB2C4",
"K. c #4DBBE7",
"L. c #78BFE1",
"P. c #27C0DF",
"I. c #01C1ED",
"U. c #08C5EC",
"Y. c #17C6E8",
"T. c #14C3ED",
"R. c #1EC3ED",
"E. c #1DD1E7",
"W. c #04C2F5",
"Q. c #0BC2F3",
"!. c #04CAF4",
"~. c #0DCBF5",
"^. c #02C2FC",
"/. c #0AC3FD",
"(. c #04CAFD",
"). c #0BCBFE",
"_. c #13C3F2",
"`. c #1BC5F6",
"'. c #16CAF5",
"]. c #14C5FC",
"[. c #1BC3FD",
"{. c #15CAFE",
"}. c #1BCBFD",
"|. c #03D3FF",
" X c #0CD2FE",
".X c #16D4F8",
"XX c #1AD2FF",
"oX c #26C5EB",
"OX c #33C4E9",
"+X c #21C3F1",
"@X c #23C2FC",
"#X c #28CAF8",
"$X c #36C7F5",
"%X c #36D3F4",
"&X c #5BC8DE",
"*X c #69CBCE",
"=X c #78C9C7",
"-X c #7CDAD7",
";X c #75E5DB",
":X c #79F2D9",
">X c #53CEEA",
",X c #4ACCF6",
"<X c #55C9F3",
"1X c #45D5F5",
"2X c #57D7F8",
"3X c #5BDBFA",
"4X c #6AD6E7",
"5X c #78D7EA",
"6X c #6AD7F8",
"7X c #7BDEF6",
"8X c #7CDDFC",
"9X c #4BE4F4",
"0X c #5BE4FF",
"qX c #68E8FB",
"wX c #71E3FD",
"eX c #79E4F9",
"rX c #7AEBFF",
"tX c #7DF7F9",
"yX c #73FFFD",
"uX c #7CFFFE",
"iX c #809DC0",
"pX c #84B4C9",
"aX c #8AD4D7",
"sX c #81E0DA",
"dX c #91D4ED",
"fX c #88D8F5",
"gX c #8CDCF5",
"hX c #83DCFB",
"jX c #8BDCFB",
"kX c #9ADCF7",
"lX c #93DCFB",
"zX c #88E8E8",
"xX c #8AEDED",
"cX c #85E6F7",
"vX c #8DE4FE",
"bX c #84ECFE",
"nX c #8DEBFF",
"mX c #97E7FC",
"MX c #99E5FD",
"NX c #93ECFF",
"BX c #87F4FA",
"VX c #85FFFF",
"CX c #8AFFFF",
"ZX c #99F5FE",
"AX c #92FEFE",
"SX c #A3EBFF",
"DX c #A0F1FF",
/* pixels */
"                                                                                                                                ",
"                                                                                                                                ",
"                                                                                                                                ",
"                                                      - h W ^ j O                                                               ",
"                                              . o m O.u.'. X X#X=.g o =                                                         ",
"                                            . % ^ #X)./.m.^.m.m.).Y.H = :                                                       ",
"                                            o W .Xm.m.B.W.W.M.C.B.N.R.H 1 O                                                     ",
"                                            u F.~.oX,X$XT.9.t.D.G.+XU.f.u $                                                     ",
"                                          o X.@Xo.5XBXcX4Xp 5.bX8XhXeXrX,.& o                                                   ",
"                                          q gXrXL pXeXvX6.q MXlX7XgXkXvX5X1                                                     ",
"                                           .NXnX ...nXNX..^ %X0X0X0X3X>X&.& X                                                   ",
"                                          <.BXAX=X7 OX$X_ i.+Xq.*.| Z h < % = . @ X o                                           ",
"                                        * D / L z   Q XX] r u < a G ` 5.pXJ.7.<.L < & +                                         ",
"                                    o u ^ @.t.r.0.s 8 $X#.% R i.T.{.%XtXnXbXMXmXwXa.k & > o                                     ",
"                                  < ] +X].).!.!./.G.H N 0 / {./.N.N.V.qXeXcXhX<Xl.].OX~ , ; o                                   ",
"                                S &XR.m.N.N.N.m.N./.P.;   q.).^.N.N.l.2XgXfX8XoXm.N.M.`.$.< $ o                                 ",
"                              U NXbX3X'.W.^.B.N.^.).p.+ * ^ ].^.^.N.g.<XjXhXwXOXQ.N.m./.+X&.# $ o                               ",
"                            - &XbXlXlXwXT.I.M.m.|.Y.k u Q y `.I.U.$X,X6X8XhXeX1X_.B.B.^.l.wX:.  :                               ",
"                            m `.2XcX7XhX2Xl.M.W.'.Z , L.a.2 8.E.qXjX8X8XhXfXcX1XW.W.m.N.C.3XZXU o +                             ",
"                          o +./.R.qXcXgXlX,Xm.'.T , iXDX>Xf 4 4XnXhXhXhXgXgX8XoXQ.W.N.m.R.qXhXMXw @ O                           ",
"                          7 OX(.N.Q.1XgXcXrXOXB , 1.NXhXrX=.  I MXrX8XlXjX8X$Xm.W.B.B.T.3XhXfXnX=X# :                           ",
"                          < f.}.].].c.>X4X2.k t J.BX7XhXjX%XQ   x aXmXeX2XoXM.^.^.M.V.2X7XfXfXhXwXZ % +                         ",
"                            r k 0 a B C K ) 5.xXBXgXhXfXkX%X`.~   X P f.T.).B.B.{.`.,XNXDXSXSXNX,Xd.y >                         ",
"                                0 ~ o.a.dXMXbXbXgXdXdXMXMX$XA.@X@.y % r T *.p.i.q.^ g 0 w w l J ( H.%.: o                       ",
"                              % q..X).Q.2XvXkX-.K K c v *XoX^.B. X{.w.R y 4 - 5 <   6 k m n y 8 % < l 6 +                       ",
"                              4 @XQ.B./.C.4XS b 5XuXxX:.5 @.(.^.^.W.A.{.+X| S -XzX4.c d.}.{.R.K.t + : $ :                       ",
"                              C {.M.B.B.~.Q z AXuXVXyXCX .h ~.N.N.N.B.B.y.H xXCXuXAX6.M _.m.Q.#Xs > + + +                       ",
"                              ~  Xm.B.B.~.M 5.yXtXP 3.VXsXi c.N.N.^.N.B.O.-.AX*X*XyXCXK y.B.(.}.C & .                           ",
"                              #.).^.N.m.C.h -XyX:XO ..uXuXL y.B.^.^.m.`.! 6.AX8 -.VXuX;.e.Z.W.}.N X                             ",
"                              #.).^.^.^.b.m xXVXCX;XZXyXyXX.0.B.^.^.m._.R 7.ZX4.=X-XxX<.>.F.m.[.N X o                           ",
"                              o.).B.N.(.C.D 5.,.2.3.6.3.=X .0.C.^.^.^.C.o.) ( F J S J v &.Z.N.].j : O                           ",
"                              ^ ).B.m.^.).+.R ] ' ! R G n V y.M.^.^.^./.x.V.C.x.#X3XqXqXOXC.N.].a : O                           ",
"                              H ).B.^.m.N.^.).).).).)./././.N.N.N.N.^.^.^.^.B.B.B.W.c.v.m.M.B.'.u $ .                           ",
"                              j {.^.^.^.N.N.^.^.^.N.N.N.N.N.N.N.N.N.N.N.N.N.N.^.(.W.M.M.M.m.^.z.3 >                             ",
"                              < D.!.^.^.N.N.N.N.N.N.N.N.^.^.N.N.^.N.N.N.N.B.^.W.Q.m.(.^.N.^. X*., &                             ",
"                              o } ~.W.N.^.^.N.N.N.N.N.N.N.N.N.N.^.^.N.N.N.M.Z.h.V.B.^.^.N.W.'.H * o                             ",
"                                u D.M.N.^.^.N.N.N.N.^.^.^.^.N.^.^.^.m.m.M.E.[ [ C.^.^.B.B.A.f.7 :                               ",
"                                . { ].^.m.m.^.N.N.N.N.^.^.^.^.^.^.N.B.].F.~ T D.B.(.^.B.B.@X` & +                               ",
"                                  2 d.).m.B.^.^.^.m.Z.C./.(.W.^.(.).Z.8.Y Y D.M.N.(.^.m.].s.8 $                                 ",
"                                    g C.(.W.m.^.n.C.6X3Xu.0.s.D.0.W d d ] c.~.m.B.^.W.C.G.C + O                                 ",
"                                    . G  X/.^.^.n.Z.2X9Xi.p p B m Z } s.v.T.W.^.W.Q.C.G._ - &                                   ",
"                                    . . H '.^.^.W.W.~.I.c.x.y.x.`.$X2X2X,Xz.W.^.m.M.+X} ; &                                     ",
"                                    . 7 * H oX~.M.^.^.m.(.(.^.W.U.2XjXjXhX,XI./.A.v.Q = =                                       ",
"                                      ^ @., j d.`.m.N.N.^.^.^.M.$XhXgXfX8X6XY.}.S.m & X                                         ",
"                                    . @..Xp.8 8 ^ +X XB.B.^.^.M.OX8XjXgXnXNXH.Q 9 o O                                           ",
"                                    - d.B.{.#XA % p ~ s.].). X X_.0XNXkXpX..7 = +                                               ",
"                                    a {.(.`.p.9 . . . * r h V E C k z 3 * 3 1 .                                                 ",
"                                    H #Xz.H +       . s Z r 3 3 4 e d ~ e.H.i .                                                 ",
"                                  + ;._ <           o t.XX}._.x.F.F.[.].).`.~ @                                                 ",
"                                  o ;               s #X/./.N.N.m.m.M.M.l.x.D.i .                                               ",
"                                  . .             o +.}.+.y.M.m.m.m.n.n.h.R d.` >                                               ",
"                                                  7 oXt.9 ^ /.n.k.k.k.k.h.s E s.N X                                             ",
"                                                  E XX~ @ | /.k.j.j.j.j.u.i 1 #.a.q .                                           ",
"                                                . =.v.3 . +.N.k.k.k.j.j.h.t @ m K.S .                                           ",
"                                                  / W   . +.^.n.k.k.g.g.v.k . > A 0 o                                           ",
"                                                  # o     ] B.k.j.j.g.g.v.k .   + .                                             ",
"                                                          ] M.k.r.@.h.b.z.m .                                                   ",
"                                                          } B.m.o.< 8.C.z.m .                                                   ",
"                                                          { /.Q.Q . ' V.h.m .                                                   ",
"                                                          / /.M.C . Z Z.v.N .                                                   ",
"                                                          K ].A.j . s F.u.N .                                                   ",
"                                                          D [.u.5   7 D.D.c .                                                   ",
"                                                          0 w.K .   & ` %.0 .                                                   ",
"                                                            o       . : > .                                                     "
};
