/* XPM */
static char *b316b6bc600e46cbc8f7384218b13acczPB27NnLEPhS93cG[] = {
/* columns rows colors chars-per-pixel */
"64 64 216 2 ",
"   c #391D00",
".  c #3B2800",
"X  c #482B01",
"o  c #5B3E0A",
"O  c #5A3508",
"+  c #4D3415",
"@  c #5E3E13",
"#  c #543711",
"$  c #4A380A",
"%  c #643F08",
"&  c #623F07",
"*  c #643E17",
"=  c #5F410B",
"-  c #5D4718",
";  c #5D4310",
":  c #63420C",
">  c #6A440D",
",  c #634413",
"<  c #6B4514",
"1  c #674915",
"2  c #6A4914",
"3  c #66461A",
"4  c #69461C",
"5  c #66481B",
"6  c #6B4B1C",
"7  c #714B14",
"8  c #724D1D",
"9  c #794B19",
"0  c #73521C",
"q  c #735316",
"w  c #4A4424",
"e  c #5E4722",
"r  c #5B5531",
"t  c #674720",
"y  c #664C23",
"u  c #6C4C22",
"i  c #6D452B",
"p  c #6F4E28",
"a  c #694A28",
"s  c #724D23",
"d  c #744E2B",
"f  c #784F23",
"g  c #6D5123",
"h  c #6C532C",
"j  c #695A2F",
"k  c #735324",
"l  c #795624",
"z  c #775927",
"x  c #7B5A25",
"c  c #74532B",
"v  c #7A562B",
"b  c #70592E",
"n  c #7C5B2C",
"m  c #774F35",
"M  c #6C5433",
"N  c #6F5638",
"B  c #685A34",
"V  c #745432",
"C  c #7A5534",
"Z  c #735B35",
"A  c #7C5D32",
"S  c #7A5439",
"D  c #745B3B",
"F  c #785B39",
"G  c #7D612D",
"H  c #6F6436",
"J  c #746236",
"K  c #7D6234",
"L  c #75633A",
"P  c #7E6339",
"I  c #7F693B",
"U  c #73683A",
"Y  c #815D2D",
"T  c #80562C",
"R  c #815E32",
"E  c #8B5F30",
"W  c #83622F",
"Q  c #8B632D",
"!  c #96742D",
"~  c #836334",
"^  c #896535",
"/  c #856936",
"(  c #8B6B35",
")  c #84653A",
"_  c #8A643A",
"`  c #856A3A",
"'  c #8C6B3B",
"]  c #926635",
"[  c #906835",
"{  c #996C36",
"}  c #90663A",
"|  c #926D3C",
" . c #9C6E3A",
".. c #88713F",
"X. c #85703B",
"o. c #93723D",
"O. c #9A723F",
"+. c #9A7737",
"@. c #836A44",
"#. c #8D6E43",
"$. c #8B6646",
"%. c #926E41",
"&. c #8C7245",
"*. c #8E7149",
"=. c #947343",
"-. c #9A7443",
";. c #9C7A46",
":. c #957349",
">. c #9A7649",
",. c #9D7B4B",
"<. c #957A4B",
"1. c #967C51",
"2. c #9E7D52",
"3. c #917859",
"4. c #A37742",
"5. c #A37B45",
"6. c #A27C4C",
"7. c #AA7E4C",
"8. c #B17F44",
"9. c #A37E52",
"0. c #A97F57",
"q. c #9F8255",
"w. c #A4824D",
"e. c #AA834D",
"r. c #B3864C",
"t. c #B48C4F",
"y. c #BA8C4E",
"u. c #B5924D",
"i. c #B9914D",
"p. c #A48353",
"a. c #AB8553",
"s. c #A48955",
"d. c #AC8A54",
"f. c #A5835A",
"g. c #AB855B",
"h. c #A6895B",
"j. c #AD8B5B",
"k. c #B18552",
"l. c #B38C54",
"z. c #BA8D53",
"x. c #B48E5C",
"c. c #BA8E5A",
"v. c #AA915B",
"b. c #B69054",
"n. c #BC9255",
"m. c #BD9A55",
"M. c #B5925D",
"N. c #BD945B",
"B. c #BE995E",
"V. c #B79A5E",
"C. c #A78F63",
"Z. c #AB8B62",
"A. c #B28E61",
"S. c #BA8E64",
"D. c #B98B6A",
"F. c #AF9064",
"G. c #B59363",
"H. c #BB9562",
"J. c #B59964",
"K. c #BD9A64",
"L. c #B49369",
"P. c #BA9668",
"I. c #B59A6C",
"U. c #BD9B6A",
"Y. c #BF9F71",
"T. c #BCA26E",
"R. c #BAA063",
"E. c #BEA273",
"W. c #C08E59",
"Q. c #C29355",
"!. c #C99556",
"~. c #C19955",
"^. c #C2955C",
"/. c #C9965A",
"(. c #C2995D",
"). c #CA9A5C",
"_. c #C5A05E",
"`. c #C18D65",
"'. c #C29662",
"]. c #CA9764",
"[. c #C39B64",
"{. c #C99D64",
"}. c #C2946B",
"|. c #C49D6A",
" X c #C99E6A",
".X c #C9956D",
"XX c #D09E64",
"oX c #C19F74",
"OX c #C5A165",
"+X c #CAA265",
"@X c #C5A26C",
"#X c #CBA16A",
"$X c #C9A56A",
"%X c #CAA26C",
"&X c #CAA36C",
"*X c #CCA96E",
"=X c #D4A36A",
"-X c #D1A569",
";X c #C5A472",
":X c #CAA672",
">X c #C9A671",
",X c #CBA572",
"<X c #CDA975",
"1X c #CCA974",
"2X c #C7A879",
"3X c #CCAA7A",
"4X c #C8A775",
"5X c #D0A772",
"6X c #D2AB74",
"7X c #D2AB75",
"8X c #D0AF7E",
"9X c #D2AE7A",
"0X c #D1B176",
"qX c #D3B17C",
"wX c #D4B380",
"eX c #D8B387",
/* pixels */
". b c g k u c u g g g u t c F V t G.[.(.{.'.{.(.#X'.[.{.H.K.s.~ M ' l x / K P c n n A #.` ~ #.c ' P.8X<X@X[.@X*X:X@X7X#X7X:X8Xn ",
"$ ` &.' ' _ #.) / / / ~ A ) @.F u G.K.N.'.'.{.(. X'.[.{.'.K.d./ + ~ W Q ' I 1.2.=.=.#.,.=.&.=.3 ' L.8X<X@X@X@X$X:X@X7X#X7X:XqXn ",
"g v.U.U.|.H.|.G.l.d.M.j.g.g.2.$.p G.N.n.'.'.{.Q.{.^.[. X{. Xx.' 3.3XqXqX3XI.E.oXj.U.G.U.U.U.j.6 ' L.3X<X:X%X@XOX:X@X7X%X7X<XqX~ ",
"; p.V.[.[.N.[.N.(.(.OX{.K.P.g.$.c P.[.N.[.'.{.(.{.^.{.#X X@XG.' M p.a.N.@XI.L.f.M.2X<X3X3XqX@Xz =.L.3X:X:X&X@XOX:X@X7X%X7X<XwX~ ",
"o ,.x.N.N.z.(.n.(.(.+X+X XK.f._ c U.$X[. X'. X(.{.^.{.#X X@XM.' F j.l.l.G.j.L.j.d.>X;X@XU.;XU.x =.L.:X@X@X&X$X$X:X@X7X%X7X<XwX~ ",
"6 g.K.[.).Q.{./.).(.).+X{.[.f._ c U.*X+X X'. X(.@X'.{. X{. Xj.` @.oX[.e.| K 2.A.[.7X@X[.H.U.K.Y =.P.:X@X@X%X$X$X:X@X7X%X7X<XqX~ ",
"* 9.x.c.W.y.Q.y.Q.z.n.N.N.M.6.Y c U.$X[.{.'.{.Q.#X'.{.{.'.K.d.~ V P.{.n.w.,.oXeX X@XM.[.@X:X|.Y =.P.3X:X@X@X$X$X:X@X7X#X7X:XqXG ",
"i g.S.'.]./.XX/.].Q.Q.(.(.K.w.^ V U.[.N.[.'.{.Q.#X'.{.{.H.H.p.n F L.{.(.V.h.A.g.e.6.-.N.<X<XP.f %.L.3X:X@X@X@X$X:X@X7X#X7X:XqXn ",
"3 p.K.^.^.N./.^.N.N.(.N.'.H.>.' g Y.P. X'.{.'. X|.|. X X|.U.p.~ Z ;X{.Q.[.,.#.:.9.G.M.[.{.@XV.k =.G.3X:X:X;X@X,X@X>X@X0X0X>XT.X.",
", 6.H.N.^.N.^.^.N.N.(.N.'.H.>.' g U.G.[.N.[.N.{.'.H.[.[.[.K.p.~ b U.(.!.{.9.=.2.G.;XK.{.{.@XV.0 ' M.;X;X@X|.|.@XH.@XK.OXR.U.J.G ",
", ,.H.N.^.N.^.^.N.N.(.N.'.H.=.' k ;XH.{.N.[.(.#X[.'.{.{.{.[.d.( h U././.#Xp.,.s.:X7X X{.{.@XG.0 o.G.2X:X@X@X@X@X@XqX*X*X$X1X@XW ",
", 9.H.N.^.Q./.^.N.N.(.N.'.H.=.' g ;XH.{.n.(.N.+X[.'.].{.{. Xd.' M L.(.].#Xd.p.g.;X<X[.{.@X:XU.k =.J.<X>X*X$X$X$X[.7X+X[.[.<XU.k ",
"3 p.K.'./.Q./.^.N.N.(.N.'.H.=.' g E.H.{.N.[.N.[.[.'.].[.[.[.d.' Z L./.].#Xj.d.d.K.:X[. X%X:XP.k =.G.>X*X>X$X@X$X@XqX#X{.$X7X@Xk ",
"3 p.K.'./.Q./.^.N.N.(.N.[.N.=.' K 2XU.%X[.%X[.#X X{. X#X%X;XG.=.D L././.#XV.v.w.M.&X#X%X%X;XG.u ;.U.1X1X>X>X@X@X2X9X%X<X<X9X4X` ",
", 6.H.N.Q.n.Q.Q.N.N.(.N.[.N.=.' F ;XA.H.M. XH.[.[.[.[. X|.;XF.*.N L.'./.#X@XU.w.e.[.#X6X%X|.G.c =.G.@XT.U.H.M.M.g.l.p.x.j.g.j.K ",
"@ ,.M.N.N.z.Q.Q.N.N.(.N.[.N.=.' y Z.=.6.5.k.7.a.a.a.l.l.x.G.q.P N L.'./.%X2X@Xw.+.N.{.%X%X|.P.A ~ w.j.s.w.,.=.o.p.p.,.j.s.2.h.&.",
"o ;.M.N.Q.N.^.N.N.(.Q.N.^.d.o.~ # #.u s s v s c n v n R / #.@.M V |.+X(.[. X7X|.a.B.[.*X@X@XU.n v ' R k n Y n n g n n W 0 z =.c ",
"o ;.N.N.Q.N.^.N.N.(.N.N.N.d.o.~ t f.' =.%.,.%.:./ ~ ^ ^ ' #.I h c U.OX(.[.[.;X|.N.{.[.&XU.U.U.v ^ ,.,.>.p.j.a.a.s.j.j.M.p.g.I.&.",
"= ;.N.N.Q.N.^.N.N.N.n.n.N.d.=./ n Y.x.K.M.U.A.G.x.d.a.d.j.j.1.L d P.[.(.[.H.|.@X{.$X[.$XU.U.L.c %.G.U.U.,X7X:X<X4X3X;X<X;X2X3X&.",
": ,.N.N.Q.N.^.^.N.(.n.n.N.l.>.' z ;XK.&X{.%XK.|.@X[.K.B.K.U.s.I c P.[.(.[.c. X;X%X%X[.@XU.@XI.v =.I.3X,X<X7X<X7X4X2X|.<X;X:X;X~ ",
", w.N.N.Q.N.^.^.N.(.Q.N.'.x.>.' k @XK.{.N.{.N.[.[.'.N.B.K.U.s.K C U.OX_.{.M.|.;X%X&XK.OX@X4XY.n | U.3X|.@X;X%X;X:X3X:X7X:X3X3X' ",
"1 w.N.N.Q.N.^.^.(.[.(.^.'.M.>.' 0 @XN.[.n.(.N.[.{.(.[.[.OX@Xj.` C |.+X_.{.H.|.@X@X#XB.OX@X4XY.n ' P.<X|. X;X;X5X;X<X:X7X&X3X3X=.",
"1 w.N.N.n.N.^.^.B.(.Q.N.'.x.=./ 8 |.N.'.z.[.H.[.^.^.(.(.[.@Xj./ C |.%X(.[.'.|.U.'.{.B.OX@X;XU.k } K.<X|. X,X%X,X|.:X X%X|.:X2X' ",
"2 w.N.N.n.N.^.^.N.(.Q.N.N.d.=.~ 6 |.N.^.z.[.N.[.'.'.[.(.[.@Xj.` C oX+XN.(.'.|.H.K.[.B.OXU.T.L.u | |.3X[.[. X X X@X,X X%X X:X:X` ",
", d.N.n.Q.y.Q.Q.^.^.^.^.'.a.=.' v U.[.N.(.N.[.{.[.(.(.[.[.@Xj./ h U.=X{.{.H.@X@X'.OX[.$X[.|.P.v o.H.<X:X%X%X%X%X%X%X#X,X@X@XT.~ ",
"1 d.B.N.(.n.(.Q.^.^.Q.^.'.a.%.` v U.K.N.(.N.'.{.{.(.(.'.[.U.p.~ e j./.!.].H.@X[.{.#X[.$X[.K.G.k | G.:X@X X%X X#X%X%X X%X@X@XE.~ ",
", d.M.n.Q.y.n.n.n.Q.Q.Q.(.a.| / v U.K.N.(.N.(.'.{.(.(.'.[.[.s.~ y M.(./.+X[.@X[.[.+X[.$X[.K.G.k | x.;X@X X X X X X%X X,X@X@XE.` ",
", s.M.N.Q.y.n.n.b.n.n.(.(.a.' / k U.K.N.[.N.(.'.'.(.(.[.{.@Xj.` b U.+X).+X[.@XK.B.[.B.$X[.|.P.v | x.:X@X X X X X X&X X,X@X;X;X` ",
"3 j.K.(.(.n./.Q.b.n.n.(.(.d.o./ k P.K.M.[.N.(.'.'.^.^.[.{.@Xj.' h U.+X).).N.K.B.[.+X[.$X[.|.U.Y | G.:X@X X%X%X#X X&X X<X@X;X;X` ",
", d.M.N.Q.z.Q.Q.N.N.(.(.[.d.=.` k U.[.N.[.N.(.B.[.^.^.(.'.|.d./ h U.{.).].N.@X X#X%XOX$X[.K.P.v | G.:X@X%X%X%X%X X%X X<X@X;X;X` ",
", s.x.l.z.r.z.n.'.'.(.'.[.d.=.` k U.|.N.{.N.(.B.[.^.^.(.[.|.d./ h L.Q.Q.^.N.|.K.B.'.N.B.M.H.G.v | M.:X@X X X X#X@X%X#X<X@X>X;X` ",
"6 j.H.N.^.z./.[.'.[.^.N.H.p.' ) k U.|.H.{.^.(.B.'.^./.[.{.@Xj.' h j.r.8.r.e.d.w.e.t.e.l.d.M.G.v ' x.@X|.|. X X X%X%X#X<X@X;X;X` ",
"  h 6 , < , 6 6 h h c c A n 3 k 6 L.H.l.N.N.[.[.(.N.n.[.[.K.j.^ w h < 9 k - 5 3 : 0 0 k 6 v ) @ ^ x.,X[.'.{.%X X|.%X{.&X[.@XU.n ",
"# #._ Y W n ~ A K ~ ~ R ' ' k G k U.[.c.^.N.(.'.(.N.n.[.[.K.j.~ r @.Q { ;...&.=.Q | ^ ' ' =.=.@ ' x.%XK.H.[. X X|.%X X&XOX@XU.G ",
"A L.A.a.d.w.g.p.,.>.>.-.6.>.W ' z ;X@XN.'.N.(.N.(.(.N.[.'.K.A.R B <.4.r.V.v.J.H.@X&XK.;X3X3XI.c | x.@XK.H.[.[.|. X,X X%X@X@XT.n ",
"~ |.[.B.[.N.[.B.M.x.x.a.x.w./ ' n ;X%XN.'.N.N.N.(.(.n.(.'.K.j.n j q.r.Q.OXJ.@X{.@X%XH.;X3X2XG.u | x.@XK.[. X X|. X,X X%X@X;XT.n ",
"q b.n.i.~.i.~.n.^./.'.N.[.d.( / v ;X@XN.'.N.N.N.N.(.n.Q.N.K.j.v H M./.).OXR.>X{.N.'.x.K.U.P.j.s | x.@X@X@X%X X X X,X X&X@X;XU.n ",
"7 l.b.y.Q.y.n.b.Q./././. Xx.' / k U.|.M.'.N.(.N.N.(.n.N.N.[.j.k U U.{.).(.V.@X^.[.5X X,X;X;X|.^ | x.:X&X&X%X%X%X X,X[.#X|.@XU.z ",
"f S.'.'.].Q.'.'.Q.Q././.|.x.' / u U.[.N.'.N.(.K.N.(.(.N.N.|.j.k J U.-X!.N.M.[.N.^. X'. X|.|.P.T | x.:X&X@X{. X%X X%X[.@X[.@XU.z ",
"d D.}.}..X`..X}.!.!./.Q.[.j./ ~ u P.[.N.(.N.'.(.(.(.(.Q.N.@Xj.k L @X=X!.N.V.&X].'. X'. X X|.A.f | x.:X@X[.'.[.%X X%X'.@X[.@XU.k ",
"6 j.H.M.M.l.V.x.M.M.c.^.'.a.%._ u U.;X'.].'.{.Q.K.N.N.N.'. Xp.6 y G.)./.{. X@XN.'.[.N.[.'.U.G.6 ' H.&X X%X%X[.|.|.;X[.%X X;XU.n ",
"6 x.N.b.N.l.N.M.M.M.N.^.'.a.| _ u P.|.c.c.z./.z.B.n.n.N.N.{.w.6 h L.).Q.(.H.|.N.'.[.N.[.'.U.G.u } M.|.'.#X%X X XK.|.H. X[.@XU.z ",
"6 M.N.n.N.b.K.H.N.N.n.^.^.a.| ^ k U.|.N.Q.n.(.Q.[.N.(.(.(.{.d.l Z U.).Q.Q.H.|.H.'.[.N.[.'.U.G.u | M.[.B.#X6X&X#XU.@X{.%X#X:X|.z ",
"0 N.(.n.N.n.(.N.n.N.n.N.^.d.| ^ k U.|.N.(.n.{.(.[.Q.(.(.(.{.l.Y Z U.].Q.(.H. XK.'.{.^.{.[.U.G.u | M.K.N.[.$X{.[.U.@X{.%X#X&XU.z ",
"x [.[.N.Q.z.(.N.n.(.n.n.(.l.o.^ c G.U.N.(.n.(.N.[.N.(.(.Q.[.d.Y h U.{.!.{.[.@X'.'.{.^.{.[.U.G.u ' V.@XB.(.[.N.K.K.@X'.+X{.@XU.k ",
"x [.{.Q.Q.z.N.N.n.(.n.n.(.l.O.^ J I.J.H.OXB.[.B.[.N.'.[.'. Xx.^ h U.{./.{. X%X'.[.{.^.{.[.|.G.u ;.@X1X@XOX$X[.@X@X:X{.#X@X:X@XW ",
"l H.[.Q.^.c.^.c.N.(.n.n.'.x.-.^ Z C.s.p.M.d.b.d.d.e.l.N.x.M.p.K Z U.].Q.(.[.@X'.[.{.'.{.[.|.G.u =.U.|.M.N.U.K.[.U.|.H.[.[.@X;X~ ",
"8 x.'.c.^.c.'.c.N.N.N.N.'.M.>.^ e &.~ ~ ' ^ ( ^ ( ^ o.-.-.;.' 5 L U.).y.n.M.|.'.[. X'.{.[.|.L.u n >.;.o.;.w.w.p.g.d.e.a.a.M.G.k ",
"6 g.x.c.Q.z.n.z.n.n.n.N.N.x.,.v X ~ 6 O % & : : 1 > > 7 7 l R 3 c U.[.Q.{.'.|.U.'.{.^.#X|.|.G.6 k &.K G / n n 6 6 z n l , , ~ g ",
"6 j.M.N.Q.z.n.z.n.n.n.N.N.M.6.n 3 j.x.w.l.e.d.w.w.5.5.e.6.6.2.A c K.(.n.(.H.[.H.'.[.N.OX|.|.G.4 g =./ ( =.o.=.^ >.p.;.6.-.=.p.K ",
"g x.H.N.Q.z.n.z.n.n.n.N.N.M.6.n @ A.}.N.{.N.'.H. X[.[.#X[.P.g.A p U.(.i.(.N.K.N.^.[.N.{.[.|.A.4 #.P.G.J.@X|.:X|.;X;XH.|. XoXU.' ",
"k G.H.N.Q.z.Q.z.n.n.N.N.N.M.6.Y 4 P.|.c.^.N.'.{.K.B.N.{.[.H.f.c d K.(.i.(.N.[.H.^.[.N.{.K.U.A.4 =.U.U.U.@XK.%X|.:X;XH.%X,X:XU.A ",
"z G.H.N.Q.z.Q.n.n.n.N.N.N.N.6.R s }.|.c.^.N.'.'.B.N.N.'.'.|.A.R c U.(.b.(.H.[.'.^.[.N.[.K.K.A.6 ' U.K.K.'.x.H.H.|.|.N.[. X|.P.z ",
"z H.B.n.Q.z.Q.n.n.n.N.N.N.H.9.R , A.H.c.[.N.N.l.'.'.N.^.'.|.G.^ v |.(.n.(.K. X[.^.[.^.{.H.K.A.6 -.;X;X%X%X[.,X X[.%X'.{.[. XP.~ ",
"z V.B.n.Q.z.Q.N.n.n.N.^.^.H.p.^ 6 U. X'.%X{.OX[.N.(.N.Q.N.H.j.n v |.(.u.(.H. X[.^.[.^.{.H.K.A.u } '.[.{. X^. X'.|.%X[. X{.#X[.W ",
"x V.B.n.Q.z.Q.N.n.n.N.^.^.H.p.^ s P.H.l.n.l.(.[.B.[.[.[.N.H.g.v c U.B.u.N.N.[.'.^.{.^.{.H.K.G.u | |. X#X#X'. X'.[. X^.].{.#XK.n ",
"0 M.N.n.n.y.n.n.N.n.N.N.N.K.p.A 6 U.N.^.z.Q.z.n.'.N.N.n.N.H.w.~ S ;X+Xm.[.K.[.N.'.{.N.{.|.K.d.2 | |.|.|.#X(.(.[.|.%X{.#X{.,X|.n ",
"7 l.n.b.~.b.(.N.N.N.Q.N.H.K.p.A 6 U.M.(.z.Q.z.n.'.Q.N.N.N.H.w.G C |.+Xm.+X|.%X+XN.{.M.[.K.H.a.< | U.|.|.#X(.(.[.[.#X'.{.'.%X|.l ",
"q l.n.b.~.i.m.n.z.z.N.N.M.H.p.n 1 U.N.(.z.Q.z.n.[.Q.Q.Q.N.H.w.n i G.n.u.N.A.H.(.N.{.N. X[.K.d.< ' U.|.[.#X(.B.[.K. X'.{.'. XK.k ",
"x N.N.n.(.b.n.b.z.z.N.N.c.G.2.A 1 U.N.(.z.Q.z.Q.'.Q.Q.Q.N.H.w.n C |.(.m.[.H.'.'.N.{.H. X|.H.a.< ' P.|.[.#XB.B.[.K. X'.{.'.@XK.k ",
"x H.N.n.(.n.N.n.^.^.'.^.M.H.p.) 1 U.M.(.z.(.z.Q.^.N.Q.^.'.K.w.G S P.m.n.[.A.H.(.H. XH. X[.H.w.: ' P.|.[.#XN.N.[.K.@X'.{.'.%X|.l ",
"8 d.l.r.n.l.N.N.c.^.'.N.M.K.g.#., U.M.(.z.(.n.Q.^.N.^./.'.K.p.K S P.n.n.#XH.[.[. X,X X%X|.P.a.6 ' K.|.[.#XN.N.[.[.&X[.{.[.%X|.z ",
"* >.>.O.5.4.e.6.7.e.k.e.7.l.p._ , U.M.(.z.Q.z.Q.^.Q.^.[.[.K.w.n $.|.m.m.%XP.'.[.x.H.l.x.x.x.g.8 ' P.|.[.#XN.N.[.K.#X'.{.'.%XU.z ",
"O %.} ^ ] Q ] ^ ] {  . . .>.:.A , P.M.N.z.Q.z.Q.'.^.[.[.[.K.w.n i 6.! ! 5._ ^ Q | -.( | -.6.6.< ' P.|.[.#XN.N.[.K.@X'.{.'. XK.k "
};
